<svg xmlns="http://www.w3.org/2000/svg" viewBox="0 0 256 256"><path d="M126.933 24.093c-.234.084-.94.265-1.567.403-1.468.322-3.595 2.118-4.528 3.821-.672 1.228-.749 4.667-.945 42.376l-.213 41.04-25.6-19.222C80 81.938 67.862 73.022 67.107 72.697c-3.091-1.33-6.682-.483-8.961 2.112-2.746 3.128-2.83 7.443-.201 10.261.632.677 13.532 10.529 28.668 21.894 15.136 11.365 27.52 20.831 27.52 21.036 0 .205-12.384 9.671-27.52 21.036-15.136 11.365-28.036 21.217-28.668 21.894-2.629 2.818-2.545 7.133.201 10.261 2.279 2.595 5.87 3.442 8.961 2.112.755-.325 12.893-9.241 26.973-19.814l25.6-19.222.213 41.04c.196 37.709.273 41.148.945 42.376 2.083 3.804 7.256 5.444 10.841 3.437.499-.278 15.623-11.547 33.609-25.04 30.558-22.924 32.773-24.672 33.761-26.644.582-1.161 1.053-2.697 1.048-3.413-.013-1.834-1.34-4.482-3.032-6.049-.791-.733-13.534-10.392-28.318-21.464s-26.928-20.264-26.987-20.427c-.059-.163 12.569-9.8 28.062-21.416 26.233-19.668 28.242-21.265 29.227-23.231.582-1.161 1.058-2.655 1.058-3.32 0-1.555-1.061-4.087-2.261-5.396-.959-1.047-62.303-47.236-65.379-49.227-1.562-1.011-4.522-1.76-5.534-1.4m30.827 40.276c11.323 8.484 20.587 15.517 20.587 15.631 0 .114-9.264 7.147-20.587 15.631a11972.042 11972.042 0 0 0-21.12 15.842c-.426.334-.533-6.022-.533-31.473s.107-31.807.533-31.473c.293.23 9.797 7.359 21.12 15.842M56.191 116.643c-4.111 1.533-6.68 4.432-7.8 8.804-.59 2.305-.588 2.808.019 5.18.879 3.431 2.864 6.132 5.668 7.712 5.931 3.342 13.402 1.156 16.423-4.805 1.583-3.122 1.879-5.655 1.011-8.641-1.469-5.054-5.643-8.398-10.851-8.693-1.791-.102-3.45.063-4.47.443m143.751.11c-2.792.857-6.243 4.279-7.227 7.167-1.568 4.601-.548 8.996 2.884 12.428 4.761 4.761 12.193 4.798 16.742.083 2.788-2.89 3.332-4.268 3.33-8.431-.002-4.333-.816-6.217-3.837-8.876-3.332-2.933-7.412-3.747-11.892-2.371m-42.182 43.616c11.323 8.484 20.587 15.517 20.587 15.631 0 .114-9.264 7.147-20.587 15.631a11972.042 11972.042 0 0 0-21.12 15.842c-.426.334-.533-6.022-.533-31.473s.107-31.807.533-31.473c.293.23 9.797 7.359 21.12 15.842" fill-rule="evenodd" fill="#ffffff"/></svg>
