<svg xmlns="http://www.w3.org/2000/svg" viewBox="0 0 256 256"><path d="M67.905 24.335c-10.336 1.093-19.785 7.888-24.604 17.692-3.438 6.993-3.194-.385-3.194 96.853 0 60.27.138 87.138.453 87.972.646 1.708 2.467 3.526 4.453 4.446 1.64.759 4.558.79 74.667.797 51.942.005 73.449-.129 74.657-.464.933-.259 2.403-1.177 3.266-2.04 4.407-4.407 2.314-11.891-3.716-13.289-.967-.224-30.436-.393-69.793-.398l-68.119-.011.231-1.813c.816-6.385 5.665-11.945 11.756-13.479 1.447-.364 20.281-.497 71.64-.504 66.911-.009 69.746-.04 71.385-.799 1.986-.92 3.807-2.738 4.453-4.446.637-1.688.637-164.016 0-165.704-.563-1.49-2.335-3.396-4.027-4.333-1.177-.651-6.874-.713-70.826-.76-38.251-.029-70.958.097-72.682.28m132.202 87.651v71.879l-66.667.139c-73.667.154-68.395-.047-74.779 2.848l-2.785 1.263.115-67.711.116-67.711 1.026-2.549c1.745-4.334 5.982-8.153 10.494-9.459 1.257-.364 18.921-.506 67.093-.536l65.387-.042v71.879" fill-rule="evenodd" fill="#ffff"/></svg>
