<svg xmlns="http://www.w3.org/2000/svg" viewBox="0 0 256 256"><path d="M105.138 24.324c-23.131 1.623-45.409 13.115-60.61 31.265-27.36 32.667-27.355 80.268.011 112.822 15.575 18.528 36.712 29.362 61.161 31.349 21.147 1.719 44.088-5.304 60.7-18.582l1.92-1.535 25.813 25.773c23.221 23.184 26.001 25.822 27.675 26.261 6.097 1.6 11.469-3.772 9.869-9.869-.439-1.674-3.077-4.454-26.261-27.675l-25.773-25.813 1.535-1.92c15.543-19.445 22.132-46.659 17.224-71.139-6.014-30.001-26.337-54.235-54.821-65.372-11.474-4.486-25.299-6.487-38.443-5.565m16.333 16.435c32.086 4.159 57.611 29.684 61.77 61.77 4.362 33.653-14.818 65.339-46.656 77.078-15.572 5.742-33.598 5.742-49.17 0-25.322-9.336-43.221-31.64-46.656-58.136-2.918-22.516 4.468-44.285 20.447-60.265C77.182 45.23 98.96 37.841 121.471 40.759" fill="#ffffff"/></svg>
