<svg xmlns="http://www.w3.org/2000/svg" viewBox="0 0 256 256"><path d="M103.14 32.456c-3.94.949-8.574 4.571-10.322 8.069-1.252 2.504-52.223 162.766-52.7 165.698-1.013 6.225 3.113 13.529 9.275 16.417l2.447 1.147h152.32l2.447-1.147c6.157-2.886 10.092-9.84 9.249-16.347-.152-1.173-6.65-22.161-14.44-46.639-7.79-24.478-14.103-44.671-14.03-44.873.074-.202 6.182-7.021 13.574-15.154 7.392-8.134 13.797-15.476 14.233-16.318 1.163-2.244.824-5.92-.735-7.965-2.333-3.058-6.69-4.117-9.995-2.429-.993.507-5.559 5.193-12.25 12.57-5.866 6.469-10.711 11.626-10.766 11.459-.055-.167-4.008-12.592-8.785-27.611-4.776-15.018-9.081-28.079-9.566-29.024-1.217-2.368-4.775-5.583-7.696-6.952l-2.44-1.144-24.107-.072c-13.258-.04-24.829.102-25.713.315m55.992 47.1 9.969 31.342-1.673 1.831c-.92 1.007-10.962 12.055-22.315 24.551L124.471 160H71.294l.557-1.813c.306-.998 8.303-26.15 17.772-55.894l17.215-54.08h42.326l9.968 31.343m16.408 51.537c.367 1.232 2.571 8.192 4.896 15.467l4.229 13.227-9.559.114c-5.258.063-13.895.063-19.195 0l-9.635-.114 14.008-15.452c7.705-8.498 14.14-15.458 14.299-15.467.159-.008.59.993.957 2.225m19.274 60.606c2.676 8.4 4.866 15.552 4.866 15.894 0 .54-9.248.62-71.68.62-62.925 0-71.68-.077-71.68-.63 0-.457 7.795-25.478 9.607-30.838.144-.426 12.78-.513 62.1-.426l61.92.108 4.867 15.272" fill="#ffffff"/></svg>
