<svg xmlns="http://www.w3.org/2000/svg" viewBox="0 0 256 256"><path d="M168.747 24.339c-2.615.387-4.038.93-6.096 2.326-.872.59-29.96 29.44-64.64 64.111-57.503 57.486-63.177 63.281-64.427 65.802l-1.371 2.764v52.498l1.194 2.56c1.567 3.36 4.854 6.66 8.148 8.183l2.605 1.204h52.498l2.764-1.369c2.524-1.25 8.313-6.923 66.61-65.28 61.732-61.796 63.877-63.996 64.808-66.471 1.329-3.535 1.328-8.418-.003-11.947-.916-2.431-2.192-3.791-25.341-27.003-13.407-13.444-25.144-24.89-26.083-25.436-3.138-1.825-6.868-2.504-10.666-1.942m35.2 72.299L192 108.585l-22.292-22.291-22.291-22.292 11.943-11.948 11.942-11.949 22.296 22.293 22.296 22.293-11.947 11.947m-59.411-12.902 8.207 8.215-42.347 42.346-42.348 42.346-8.315-8.323-8.315-8.323 42.237-42.239c23.23-23.231 42.335-42.238 42.455-42.238.12 0 3.912 3.697 8.426 8.216m-6.188 78.502-42.344 42.344-8.324-8.315-8.323-8.315 42.347-42.349 42.347-42.349 8.32 8.32 8.321 8.32-42.344 42.344m-61.975 45.653c0 .177-6.336.322-14.08.322h-14.08v-28.795l14.08 14.075c7.744 7.742 14.08 14.221 14.08 14.398" fill-rule="evenodd" fill="#ffffff"/></svg>
