<svg xmlns="http://www.w3.org/2000/svg" viewBox="0 0 256 256"><path d="M149.76 24.384c-.967.26-14.053 10.172-37.108 28.106L77.037 80.194l-24.759.116-24.758.117-2.435 1.234c-5.038 2.552-8.14 6.939-8.928 12.625-.242 1.749-.358 16.432-.283 35.935L16 163.2l1.117 2.651c1.786 4.237 4.795 7.246 9.032 9.032L28.8 176l24.533.213 24.534.214 34.732 27.052c19.103 14.879 35.304 27.337 36.002 27.685 3.387 1.69 7.273.661 9.881-2.617l1.305-1.639.116-97.988c.13-108.79.355-100.174-2.692-102.85-1.375-1.207-3.908-2.222-5.318-2.13-.352.023-1.312.223-2.133.444m-6.078 143.272-.109 39.655-27.832-21.629-27.833-21.629V91.947l27.833-21.629 27.832-21.629.109 39.655c.06 21.811.06 57.501 0 79.312M72.107 128v32H32V96h40.107v32M188.8 96.806c-2.065.954-3.365 2.304-4.246 4.413-.781 1.869-.819 2.934-.186 5.234.385 1.4 2.244 3.494 10.324 11.627l9.855 9.92-9.855 9.92c-10.171 10.238-10.809 11.09-10.787 14.4.012 1.758 1.481 4.455 3.198 5.87 1.821 1.501 4.044 2.026 6.71 1.585 1.662-.275 2.664-1.144 11.947-10.364l10.133-10.065 9.92 9.843c10.658 10.575 11.418 11.114 15.099 10.699 4.984-.562 8.308-6.08 6.534-10.847-.245-.661-4.9-5.665-10.343-11.121l-9.896-9.92 9.896-9.92c5.443-5.456 10.098-10.46 10.343-11.121 1.774-4.767-1.55-10.285-6.534-10.847-3.681-.415-4.44.123-15.107 10.707l-9.928 9.851-9.699-9.68c-6.301-6.288-10.254-9.908-11.284-10.334-2.087-.863-4.001-.816-6.094.15" fill="#ffffff"/></svg>
