<svg xmlns="http://www.w3.org/2000/svg" viewBox="0 0 256 256"><path d="M121.108 24.364c-18.299 1.409-36.178 9.776-49.626 23.224-6.95 6.949-11.35 13.205-15.79 22.447-5.562 11.576-7.89 23.237-7.91 39.618-.016 13.269-2.522 32.024-6.186 46.294-1.893 7.374-3.588 12.092-6.747 18.773-2.578 5.453-2.622 5.608-2.611 9.173.015 5.039 1.18 7.893 4.631 11.344 1.831 1.831 3.353 2.901 5.158 3.627l2.56 1.029 22.143.214 22.143.213.721 2.56c1.901 6.75 5.124 12.205 10.223 17.303 7.786 7.787 17.133 11.651 28.183 11.651s20.397-3.864 28.183-11.651c5.099-5.098 8.322-10.553 10.223-17.303l.721-2.56 22.143-.213 22.143-.214 2.56-1.029c1.805-.726 3.327-1.796 5.158-3.627 3.44-3.44 4.607-6.295 4.635-11.344.02-3.575-.016-3.704-2.608-9.173-3.161-6.669-4.857-11.383-6.754-18.773-3.664-14.27-6.17-33.025-6.186-46.294-.02-16.342-2.351-28.009-7.915-39.618-4.385-9.149-8.884-15.546-15.785-22.447-13.764-13.764-31.179-21.776-50.545-23.253-6.285-.48-6.264-.48-12.865.029m15.755 16.381c12.626 1.795 23.701 6.871 33.377 15.297 10.936 9.522 18.49 23.201 20.89 37.825.251 1.525.64 7.765.866 13.866.226 6.102.614 13.494.862 16.427 1.812 21.424 7.273 44.427 13.497 56.853l1.442 2.88H48.203l1.441-2.88c3.767-7.529 6.967-17.688 9.642-30.615 2.744-13.261 4.713-31.336 4.714-43.264.001-12.97 2.136-22.465 7.321-32.559 7.342-14.293 19.939-25.288 35.346-30.849 9.088-3.28 20.302-4.387 30.196-2.981m13.75 159.622c0 1.163-3.304 6.035-5.757 8.489-4.866 4.865-10.069 7.037-16.856 7.037-6.787 0-11.99-2.172-16.856-7.037-2.453-2.454-5.757-7.326-5.757-8.489 0-.143 10.176-.26 22.613-.26s22.613.117 22.613.26" fill-rule="evenodd" fill="#ffffff" /></svg>
