<svg xmlns="http://www.w3.org/2000/svg" viewBox="0 0 256 256"><path d="M111.147 24.104c-.235.078-.951.257-1.593.398-1.563.345-4.159 2.681-4.871 4.384-.47 1.126-.576 8.871-.576 42.14 0 22.418-.098 40.761-.217 40.761-.12 0-11.709-8.622-25.755-19.159-14.045-10.537-26.13-19.465-26.855-19.84-2.954-1.528-7.526-.344-9.705 2.514-.913 1.197-1.25 2.176-1.383 4.027-.343 4.731-1.588 3.599 29.989 27.24 15.588 11.67 28.342 21.314 28.342 21.431 0 .117-12.754 9.761-28.342 21.431-31.577 23.641-30.332 22.509-29.989 27.24.21 2.913 1.625 5.065 4.189 6.373 2.016 1.028 5.09 1.103 6.899.168.725-.375 12.81-9.303 26.855-19.84 14.046-10.537 25.635-19.159 25.755-19.159.119 0 .217 18.324.217 40.719 0 27.733.144 41.102.453 41.92.646 1.708 2.467 3.526 4.453 4.446 1.993.922 3.373 1.001 5.366.307.792-.276 16.366-11.695 34.609-25.375 36.025-27.015 34.905-26.045 34.905-30.23 0-4.148.705-3.526-30.074-26.569-15.588-11.67-28.341-21.314-28.34-21.431.001-.117 5.502-4.341 12.226-9.387 6.723-5.045 12.606-9.698 13.072-10.341 1.298-1.787 1.446-5.687.301-7.932-1.544-3.025-5.317-4.805-8.801-4.152-1.038.195-4.706 2.677-11.735 7.941-5.624 4.212-10.321 7.658-10.437 7.658-.117 0-.212-14.304-.212-31.787 0-17.483.095-31.787.212-31.787.116 0 4.813 3.446 10.437 7.658 7.122 5.333 10.691 7.745 11.759 7.945 3.535.663 7.204-1.075 8.777-4.156 1.144-2.244.997-6.144-.3-7.932-.867-1.195-31.427-24.49-34.511-26.307-1.626-.958-4.204-1.621-5.12-1.317m69.546 24.606c-2.746 1.515-4.544 4.231-4.585 6.925-.054 3.543.49 4.277 10.767 14.546l9.81 9.804-9.978 10.034c-9.431 9.484-10.002 10.149-10.411 12.125-.238 1.15-.37 2.302-.294 2.56.077.258.255.994.395 1.635.318 1.451 2.514 3.996 4.201 4.869 1.535.793 4.263.889 6.291.22 1.05-.347 4.373-3.378 11.292-10.303l9.804-9.81 10.034 9.978c9.484 9.431 10.149 10.002 12.125 10.411 1.15.238 2.302.37 2.56.294.258-.077.994-.255 1.635-.395 1.451-.318 3.996-2.514 4.869-4.201.793-1.535.889-4.263.22-6.291-.347-1.05-3.378-4.373-10.303-11.292l-9.81-9.804 9.978-10.034c9.431-9.484 10.002-10.149 10.411-12.125.238-1.15.37-2.302.294-2.56a31.883 31.883 0 0 1-.395-1.635c-.312-1.425-2.504-3.991-4.125-4.829-1.401-.725-4.935-.813-6.65-.165-.661.249-5.621 4.855-11.022 10.236l-9.821 9.782-9.379-9.412c-5.159-5.177-10.092-9.783-10.962-10.236-1.765-.918-5.556-1.097-6.951-.327m-39.229 111.359c16.925 12.695 21.029 15.96 20.585 16.374-.943.877-41.706 31.344-41.938 31.344-.12 0-.218-14.304-.218-31.787 0-17.483.097-31.787.216-31.787.118 0 9.728 7.136 21.355 15.856" fill-rule="evenodd" fill="#ffffff" /></svg>
