<svg xmlns="http://www.w3.org/2000/svg" viewBox="0 0 256 256"><path d="M92.8 40.714c-2.645 1.185-4.888 4.529-4.888 7.286 0 3.357.376 3.766 39.144 42.561l37.415 37.441-37.417 37.439C88.274 204.245 87.912 204.638 87.912 208c0 3.144 3.217 7.155 6.186 7.712 2.303.432 4.769-.046 6.52-1.263.863-.6 19.739-19.289 41.946-41.53 32.832-32.881 40.476-40.747 40.903-42.089.758-2.379.34-5.494-.992-7.409-.616-.884-19.22-19.696-41.344-41.803-28.272-28.252-40.696-40.391-41.811-40.853-1.932-.802-4.795-.824-6.52-.051" fill="#ffffff"/></svg>
