<svg xmlns="http://www.w3.org/2000/svg" viewBox="0 0 256 256"><path d="M221.013 64.672c-.979.419-22.743 21.884-63.251 62.381l-61.758 61.742-25.922-25.896c-14.316-14.301-26.46-26.096-27.123-26.344-4.762-1.778-10.285 1.548-10.847 6.533-.452 4.01-1.308 3.026 29.483 33.902 15.755 15.797 29.468 29.211 30.473 29.809 2.489 1.479 5.377 1.478 7.864-.002 1.005-.598 30.949-30.236 66.54-65.862 56.268-56.322 64.773-64.998 65.171-66.482.64-2.382.567-3.576-.343-5.546-1.873-4.059-6.37-5.91-10.287-4.235" fill="#ffffff"/></svg>
