<svg xmlns="http://www.w3.org/2000/svg" viewBox="0 0 256 256"><path d="M35.627 40.703 C 30.866 42.218,26.816 45.902,25.139 50.241 C 23.275 55.068,24.070 61.233,27.079 65.280 C 27.864 66.336,43.688 83.388,62.243 103.172 L 95.979 139.145 96.096 179.555 L 96.213 219.965 97.610 222.803 C 99.360 226.356,102.724 229.539,106.135 230.869 C 109.405 232.144,114.501 232.194,117.547 230.980 C 120.709 229.720,153.917 207.424,155.889 205.238 C 156.796 204.232,158.044 202.330,158.662 201.011 L 159.787 198.613 159.907 168.871 L 160.028 139.128 193.764 103.164 C 212.319 83.384,228.123 66.360,228.885 65.332 C 232.018 61.109,232.804 55.134,230.872 50.225 C 229.515 46.776,226.059 43.142,222.627 41.558 L 219.947 40.320 128.640 40.240 C 55.714 40.176,36.990 40.269,35.627 40.703 M213.901 58.183 C 212.767 59.443,196.960 76.340,178.773 95.734 C 160.587 115.127,145.323 131.712,144.853 132.590 C 144.026 134.137,143.996 135.125,143.880 164.526 L 143.760 194.866 127.997 205.373 L 112.234 215.881 112.117 175.034 C 112.003 135.120,111.981 134.150,111.147 132.591 C 110.677 131.714,95.509 115.222,77.440 95.943 C 59.371 76.665,43.563 59.767,42.311 58.392 L 40.035 55.893 127.998 55.893 L 215.962 55.893 213.901 58.183 " fill="white" stroke="none" fill-rule="evenodd"></path></svg>
