<svg xmlns="http://www.w3.org/2000/svg" viewBox="0 0 256 256"><path d="M119.748 8.76c-15.752 2.976-28.544 12.842-35.275 27.206-3.759 8.02-4.677 14.416-4.683 32.607l-.003 11.614-18.027.12-18.027.12-2.447 1.147c-2.774 1.3-6.24 4.542-7.49 7.007-1.854 3.654-1.851 3.569-1.714 64.806l.131 58.453 1.194 2.56c1.567 3.36 4.854 6.66 8.148 8.183l2.605 1.204h167.68l2.605-1.204c3.294-1.523 6.581-4.823 8.148-8.183l1.194-2.56v-59.52c0-46.069-.12-59.911-.528-61.252-1.276-4.186-5.305-8.316-9.727-9.97-2.349-.879-2.736-.885-59.948-.885H96l.003-13.333c.002-7.333.204-14.569.449-16.079 1.122-6.914 3.92-12.178 9.319-17.532 7.088-7.029 15.998-10.076 26.133-8.938 7.64.858 13.724 3.888 19.601 9.765 4.314 4.313 6.48 7.922 8.092 13.488.617 2.126 1.467 4.393 1.889 5.038 1.771 2.703 6.247 4.035 9.473 2.818 1.983-.747 3.946-2.978 4.621-5.249.551-1.856.548-2.428-.03-4.919-2.043-8.809-5.865-15.686-12.402-22.318-6.963-7.064-15.441-11.824-24.655-13.844-4.329-.949-14.562-1.14-18.745-.35m88.039 143.347v56.106H48.213V96h159.574v56.107" fill="#ffffff"/></svg>
