<svg xmlns="http://www.w3.org/2000/svg" viewBox="0 0 256 256"><path d="M42.667 40.57c-2.798.54-8.467 3.505-10.55 5.518-2.861 2.766-4.702 5.2-5.88 7.772-2.397 5.235-2.329 3.305-2.329 66.247 0 63.817-.107 61.084 2.626 66.682 1.902 3.895 6.782 8.775 10.677 10.677 5.686 2.777.477 2.626 90.789 2.626s85.103.151 90.789-2.626c3.895-1.902 8.775-6.782 10.677-10.677 2.733-5.598 2.626-2.865 2.626-66.682 0-62.942.068-61.012-2.329-66.247-2.899-6.331-10.181-12.107-16.808-13.329-2.883-.532-167.522-.494-170.288.039m168.746 16.245c1.692.937 3.464 2.843 4.027 4.333.312.827.453 19.202.453 59.008 0 52.449-.064 57.933-.691 59.172-.983 1.94-1.854 2.833-3.671 3.761-1.548.79-3.746.808-84.087.701l-82.497-.11-1.571-1.198c-.864-.659-1.953-1.947-2.42-2.863-.836-1.638-.849-2.596-.849-59.509 0-47.617.102-58.088.576-59.224.712-1.703 3.308-4.039 4.871-4.384.642-.141 1.358-.322 1.593-.402.234-.08 37.002-.111 81.706-.069 74.86.07 81.381.132 82.56.784M93.919 216.321c-4.173.985-6.751 5.533-5.587 9.855.626 2.326 3.071 4.827 5.331 5.455 2.376.659 66.298.659 68.674 0 .933-.259 2.403-1.177 3.266-2.04 4.407-4.407 2.314-11.891-3.716-13.289-2.053-.476-65.947-.458-67.968.019" fill="#ffffff"/></svg>
