<svg xmlns="http://www.w3.org/2000/svg" viewBox="0 0 256 256"><path d="M102.4 21.601C86.718 26.988 72.626 35.97 61.278 47.813c-16.329 17.04-26.147 38.182-28.64 61.67-1.423 13.413-.077 27.531 3.864 40.532 10.029 33.087 36.396 59.454 69.483 69.483 22.605 6.852 46.59 5.76 68.855-3.136 26.157-10.45 47.506-31.883 57.841-58.069 2.989-7.572 3.535-9.892 2.894-12.3-.881-3.311-4.227-6.046-7.396-6.046-.695 0-2.789.389-4.653.865-19.179 4.897-35.232 4.238-53.713-2.206-20.311-7.081-38.715-23.603-48.592-43.624-6.153-12.471-9.008-24.931-9.008-39.309 0-7.993.75-14.232 2.582-21.479 1.403-5.548 1.521-7.139.682-9.148-1.097-2.625-4.775-4.993-7.744-4.986-.469.001-2.869.695-5.333 1.541m-5.849 23.092c-.603 5.908-.344 20.783.452 25.92 2.971 19.164 11.076 37.503 22.73 51.428 3.474 4.15 11.037 11.662 15.094 14.99 13.241 10.863 30.792 18.607 49.256 21.735 6.726 1.139 19.528 1.55 25.665.822 2.47-.292 4.589-.433 4.709-.313.31.31-3.358 6.711-6.162 10.752-12.991 18.722-32.871 31.788-55.122 36.225-14.185 2.828-30.435 1.878-44.16-2.584a87.79 87.79 0 0 1-52.091-45.588c-4.509-9.408-6.716-16.835-8.03-27.026-4.154-32.228 9.858-64.095 36.475-82.956 3.008-2.131 10.625-6.699 11.184-6.707.186-.002.186 1.484 0 3.302" fill-rule="evenodd" fill="#ffffff"/></svg>
