<svg xmlns="http://www.w3.org/2000/svg" viewBox="0 0 256 256"><path d="M122.667 24.161C97.164 25.6 73.993 35.694 55.734 53.32c-16.685 16.106-27.172 36.718-30.833 60.6-.912 5.953-1.017 20.331-.192 26.453 3.008 22.322 12.096 40.774 27.74 56.32 11.033 10.964 22.485 18.347 37.398 24.111 6.614 2.556 10.835 3.378 15.738 3.063 5.127-.329 8.16-1.165 13.028-3.591 3.372-1.68 4.702-2.667 7.908-5.868 3.261-3.255 4.16-4.473 5.832-7.901 2.342-4.8 3.17-7.973 3.712-14.237.331-3.827.633-5.109 1.728-7.333 1.492-3.032 4.286-5.796 7.524-7.444l2.096-1.066 27.734-.242c26.677-.232 27.859-.276 31.055-1.16 11.375-3.144 20.185-12.011 22.948-23.094 4.132-16.578 3.737-35.299-1.1-52.104-6.959-24.176-21.695-44.285-42.877-58.508-9.188-6.17-23.219-12.217-33.92-14.618-8.556-1.92-20.602-2.99-28.586-2.54m14.63 16.397c12.663 1.379 25.529 5.748 36.295 12.324 19.548 11.941 34.059 31.53 39.689 53.578 1.958 7.669 2.369 11.488 2.344 21.753-.048 19.057-2.631 26.272-10.825 30.233l-2.773 1.341-27.947.243c-30.033.261-29.366.212-34.837 2.557-7.194 3.084-14.535 10.741-17.155 17.893-1.404 3.834-1.771 5.677-2.155 10.817-.283 3.789-.608 5.415-1.452 7.259-2.93 6.4-9.904 10.261-16.587 9.185-4.561-.735-14.69-5.102-21.681-9.348-20.264-12.309-34.369-32.048-38.562-53.966-1.791-9.368-1.987-21.573-.49-30.507 3.125-18.639 11.425-34.765 24.719-48.028 7.815-7.796 14.635-12.636 24.406-17.319 14.368-6.887 31.132-9.745 47.011-8.015m-13.35 24.172c-2.975 1.018-6.241 4.329-7.242 7.342-.906 2.728-.724 6.773.406 9.014 1.022 2.027 3.509 4.564 5.556 5.665 2.306 1.242 8.213 1.316 10.453.132 7.059-3.731 8.988-12.735 3.982-18.584-3.114-3.638-8.601-5.126-13.155-3.569M80.983 88.47c-5.779 1.615-9.245 6.554-8.795 12.532.559 7.41 7.441 12.394 14.588 10.563 5.838-1.496 9.559-6.572 9.106-12.423-.577-7.457-7.826-12.649-14.899-10.672m87.893 0c-6.894 1.927-10.548 9.097-8.014 15.727 1.457 3.812 4.317 6.332 8.362 7.368 2.817.722 5.844.409 8.292-.857 1.853-.958 4.347-3.569 5.301-5.549 1.133-2.352 1.344-6.425.469-9.06-1.893-5.7-8.603-9.252-14.41-7.629M79.98 144.779c-4.921 1.896-7.873 6.079-7.873 11.155 0 7.927 7.574 13.752 15.053 11.578 8.584-2.495 11.638-12.902 5.688-19.383-2.442-2.66-5.286-3.915-8.795-3.879-1.525.016-3.358.254-4.073.529" fill="#ffffff"/></svg>
