<svg xmlns="http://www.w3.org/2000/svg" viewBox="0 0 256 256"><path d="M52.631 32.444c-4.434.877-9.216 4.692-11.21 8.942l-1.101 2.347v168.534l.931 2.016a16.847 16.847 0 0 0 5.855 6.912c4.175 2.83 4.366 2.848 29.746 2.713 19.956-.106 23.002-.209 24.611-.826 4.227-1.622 7.741-5.171 9.546-9.641l.991-2.454V45.013l-.991-2.454c-2.078-5.147-6.405-8.961-11.34-9.996-2.981-.625-43.957-.729-47.038-.119m103.496.129c-4.745 1.043-9.103 4.95-11.136 9.986L144 45.013v165.974l.991 2.454c1.805 4.47 5.319 8.019 9.546 9.641 1.609.617 4.655.72 24.611.826 19.999.106 23.066.036 25.16-.573 4.556-1.324 8.417-4.672 10.441-9.052l.931-2.016V43.733l-1.101-2.347c-1.472-3.137-4.661-6.241-8.071-7.858l-2.775-1.315-22.613-.081c-16.534-.06-23.253.059-24.993.441M96 128.218v80.004l-19.947-.111L56.107 208l-.108-79.893-.108-79.894H96v80.005m104.001-.111L199.893 208l-19.946.111-19.947.111V48.213H200.109l-.108 79.894" fill="#ffffff"/></svg>
