<svg xmlns="http://www.w3.org/2000/svg" viewBox="0 0 256 256"><path d="M44.525 32.44c-4.466.892-9.004 4.631-11.117 9.16l-1.195 2.56v167.68l1.194 2.56c1.567 3.36 4.854 6.66 8.148 8.183l2.605 1.204h167.68l2.605-1.204c3.294-1.523 6.581-4.823 8.148-8.183l1.194-2.56V44.16l-1.204-2.605c-1.523-3.294-4.823-6.581-8.183-8.148l-2.56-1.194-82.773-.063c-45.526-.034-83.569.096-84.542.29M64 96.932v48.719l.905 1.869c.545 1.125 1.594 2.326 2.634 3.015 1.725 1.142 1.75 1.145 11.042 1.275l9.312.13V208.213h-39.68v-160H64v48.719m40.107-4.772v43.947H80.213V48.213h23.894V92.16m32 5.02c0 46.878.033 49.03.791 50.443.436.811 1.509 2.056 2.385 2.766 1.563 1.266 1.699 1.294 7.102 1.432l5.508.14v56.252h-47.786v-56.32h4.923c6.39 0 8.292-.853 10.172-4.565.625-1.235.691-6.026.691-50.24V48.213h16.214V97.18m39.68-5.02v43.947h-23.894V48.213h23.894V92.16m32 36.053v80h-39.68V151.94l9.312-.13c9.292-.13 9.317-.133 11.042-1.275 1.04-.689 2.089-1.89 2.634-3.015l.905-1.869V48.213H207.787v80" fill-rule="evenodd" fill="#ffff"/></svg>
