<svg xmlns="http://www.w3.org/2000/svg" viewBox="0 0 256 256"><path d="M120.747 24.32c-36.774 2.49-69.769 24.672-85.996 57.813-4.911 10.029-8.131 20.412-9.858 31.787-1.031 6.787-1.031 21.373 0 28.16 4.764 31.37 21.891 57.697 48.353 74.329 11.472 7.21 26.044 12.476 40.674 14.698 6.787 1.031 21.373 1.031 28.16 0 22.397-3.401 41.936-12.867 57.655-27.929 17.075-16.362 27.729-37.111 31.372-61.098 1.031-6.787 1.031-21.373 0-28.16-4.729-31.139-21.768-57.479-47.891-74.037-8.792-5.573-22.599-11.233-32.603-13.367-9.311-1.986-20.649-2.82-29.866-2.196m21.333 16.834c19.109 3.239 36.245 12.257 49.361 25.976 12.55 13.128 20.413 28.932 23.472 47.179 1.06 6.324 1.06 21.058 0 27.382-6.527 38.929-36.939 68.547-75.522 73.549-40.225 5.216-78.605-17.63-93.515-55.665-1.924-4.908-3.769-11.797-4.789-17.884-1.06-6.324-1.06-21.058 0-27.382C44.276 95.29 52.463 79.297 65.88 65.88c14.813-14.813 31.75-22.813 54.013-25.512 3.334-.404 18.293.126 22.187.786m-23.088 31.624c-11.202 1.751-22.05 7.36-30.474 15.755-7.893 7.865-13.039 17.339-15.42 28.388-1.094 5.081-1.094 17.077 0 22.158 2.378 11.036 7.515 20.499 15.42 28.403 7.904 7.905 17.367 13.042 28.403 15.42 5.081 1.094 17.077 1.094 22.158 0 10.984-2.367 20.536-7.553 28.403-15.42 7.867-7.867 13.053-17.419 15.42-28.403 1.094-5.081 1.094-17.077 0-22.158-5.702-26.463-28.593-44.981-55.329-44.758-2.698.022-6.56.299-8.581.615m17.257 16.227c9.707 1.845 19.241 8.222 24.789 16.58 2.141 3.226 4.711 8.802 5.539 12.016 1.627 6.322 1.631 14.395.011 20.798-.913 3.61-4.378 10.589-6.917 13.931-5.503 7.247-13.293 12.255-22.711 14.6-2.723.679-4.955.904-8.96.904-15.733 0-28.943-8.309-35.856-22.554-3.329-6.86-4.564-13.748-3.796-21.173.567-5.486 1.419-8.489 3.796-13.387 4.348-8.96 10.229-14.732 19.348-18.991 7.691-3.593 15.603-4.464 24.757-2.724" fill="#ffffff"/></svg>
