<svg xmlns="http://www.w3.org/2000/svg" viewBox="0 0 256 256"><path d="M149.646 24.459c-1.535.478-38.107 28.479-42.601 32.616-5.61 5.166-2.38 13.752 5.173 13.752 1.194 0 2.69-.272 3.323-.604.634-.333 7.2-5.315 14.592-11.072l13.44-10.468.214 29.952c.205 28.881.243 30.012 1.066 31.631.47.924 1.591 2.268 2.493 2.987 1.464 1.166 1.949 1.307 4.512 1.307 3.281 0 5.109-.942 6.9-3.557l1.029-1.5.118-39.285c.131-43.636.258-41.556-2.694-44.148-1.366-1.199-3.876-2.21-5.318-2.141-.352.016-1.363.255-2.247.53M45.289 32.431c-4.29 1.827-6.358 6.685-4.59 10.783.326.755 7.85 9.341 16.721 19.079L73.548 80l-23.014.213-23.014.214-2.435 1.234c-5.038 2.552-8.14 6.939-8.928 12.625-.242 1.749-.358 16.432-.283 35.935L16 163.2l1.117 2.651c1.786 4.237 4.795 7.246 9.032 9.032L28.8 176l24.533.213 24.534.214 34.732 27.052c19.103 14.879 35.304 27.337 36.002 27.685 3.387 1.69 7.272.661 9.881-2.617l1.305-1.639.213-25.792.213-25.792 21.53 23.697c23.495 25.86 22.933 25.344 27.113 24.873 5.223-.588 8.527-6.282 6.445-11.108-.466-1.081-30.744-34.744-57.84-64.306-2.044-2.229-26.12-28.725-53.502-58.88-27.383-30.155-50.515-55.365-51.403-56.022-1.792-1.326-5.481-1.908-7.267-1.147M218.24 72.817c-2.944 1.556-4.484 4.059-4.473 7.273.008 2.387.587 3.454 5.02 9.247 7.642 9.986 11.922 21.22 12.857 33.747 1.191 15.952-3.26 31.038-12.857 43.579-4.433 5.793-5.012 6.86-5.02 9.247-.016 4.534 3.401 7.983 7.907 7.983 2.967 0 4.648-1.044 7.828-4.864 11.917-14.313 18.391-32.277 18.391-51.029 0-12.709-2.804-24.525-8.523-35.915-4.203-8.371-10.961-17.529-14.127-19.144-1.981-1.011-5.216-1.068-7.003-.124M72.107 128v32H32V96h40.107v32m44.122-1.067 27.542 30.294.008 25.102.008 25.102-1.052-.782c-.578-.43-13.151-10.19-27.94-21.689l-26.888-20.907-.007-34.112c-.004-21.053.145-33.956.39-33.706.219.223 12.791 14.037 27.939 30.698m72.571-27.34c-1.989.89-3.95 3.242-4.534 5.437-.707 2.656-.118 4.548 2.532 8.138 2.85 3.862 4.293 7.302 4.869 11.613.889 6.643-.644 12.327-4.869 18.051-2.636 3.57-3.239 5.487-2.543 8.088 1.031 3.856 3.886 6.088 7.792 6.091 3.554.003 5.307-1.269 8.931-6.481 9.369-13.478 9.271-32.038-.24-45.357-2.234-3.128-4.292-5.132-5.886-5.733-1.631-.616-4.497-.543-6.052.153" fill="#ffffff"/></svg>
