<svg xmlns="http://www.w3.org/2000/svg" viewBox="0 0 256 256"><path d="M222.08 24.28c-.704.175-1.664.532-2.133.792-.47.261-6.124 5.758-12.566 12.216L195.669 49.03l-1.728-1.407c-11.383-9.264-24.857-16.18-38.708-19.867-8.679-2.311-14.258-3.078-24.18-3.324-5.913-.147-10.703-.043-13.654.297-25.226 2.908-46.419 13.268-63.861 31.219-11.537 11.873-19.164 24.563-24.235 40.323-10.307 32.027-4.457 66.92 15.762 94.022 3.903 5.232 12.56 14.276 17.442 18.222 28.71 23.205 67.794 29.652 101.899 16.808 24.989-9.41 45.226-27.729 56.843-51.456 11.05-22.568 13.68-47.159 7.62-71.254-2.363-9.393-6.667-19.935-8.961-21.949-4.326-3.799-11.5-1.66-12.99 3.872-.627 2.329-.449 3.108 2.093 9.182 5.197 12.416 7.196 23.319 6.754 36.842-.337 10.328-1.649 17.629-4.753 26.453-7.732 21.977-23.58 39.806-44.399 49.947-24.64 12.002-52.885 11.841-77.653-.443-9.711-4.816-16.296-9.678-24.141-17.821-12.32-12.791-19.909-27.829-23.312-46.189-1.066-5.753-1.052-23.189.023-29.014C45.106 94.122 53.518 78.15 67.044 65.05c15.071-14.595 33.511-22.899 54.516-24.548 21.355-1.678 42.32 4.51 59.891 17.676l2.892 2.167-11.376 11.381-11.375 11.382-3.25-2.122c-9.627-6.287-20.378-9.187-32.475-8.759-12.271.435-21.673 3.798-31.787 11.371-13.767 10.309-21.974 26.797-21.995 44.189-.011 9.427 1.603 16.223 5.979 25.173 6.023 12.32 15.262 20.962 28.655 26.805 14.129 6.164 31.426 5.561 46.241-1.612 13.067-6.328 24.038-19.196 28.554-33.491 1.641-5.195 2.38-10.177 2.37-15.971-.011-6.219-.654-8.095-3.396-9.91-3.649-2.415-8.322-1.65-10.947 1.791-1.087 1.426-1.198 1.948-1.499 7.047-.405 6.852-.928 9.784-2.545 14.251-2.834 7.833-9.875 16.399-16.772 20.406-8.729 5.07-19.061 6.911-28.201 5.025-10.007-2.065-19.25-7.91-24.791-15.674-2.536-3.554-5.44-9.826-6.593-14.24-1.651-6.323-1.278-15.021.936-21.837 1.984-6.109 5.046-11.055 9.735-15.728 3.489-3.478 6.326-5.502 10.948-7.809 10.322-5.155 23.922-5.182 34.521-.069 5.571 2.687 6.682.731-9.871 17.366-15.681 15.758-15.885 16.022-15.325 19.757.723 4.815 5.366 7.852 10.108 6.611 1.692-.442 6.334-4.953 51.063-49.629 27.06-27.028 49.46-49.629 49.776-50.224 2.011-3.779.51-8.965-3.135-10.83-1.503-.769-4.243-1.106-5.816-.715" fill="#ffffff"/></svg>
