<svg xmlns="http://www.w3.org/2000/svg" viewBox="0 0 256 256"><path d="M39.04 56.089c-.235.086-.94.269-1.567.407-2.749.604-5.445 4.368-5.464 7.628-.005.889.38 2.38.856 3.312.631 1.237 9.78 9.623 33.813 30.991C84.8 114.54 99.627 127.847 99.627 128c0 .153-14.827 13.46-32.949 29.573-24.033 21.368-33.182 29.754-33.813 30.991-3.646 7.146 5.295 14.701 11.725 9.908 3.265-2.435 73.1-64.79 73.998-66.073 1.832-2.616 1.69-6.778-.312-9.167-1.819-2.173-73.556-65.786-74.825-66.352-1.294-.578-3.776-1.023-4.411-.791m79.183 128.11c-1.878.362-4.268 2.22-5.197 4.04-1.9 3.726-.602 8.469 2.917 10.657l1.604.997 49.922.114 49.922.113 1.893-.966c1.041-.532 2.48-1.705 3.198-2.607 1.167-1.467 1.305-1.946 1.305-4.547 0-2.616-.133-3.072-1.326-4.547-.728-.902-1.976-2.024-2.773-2.493-1.424-.839-2.264-.854-50.941-.906-27.222-.029-49.957.036-50.524.145" fill-rule="evenodd" fill="#ffff"/></svg>
