<svg xmlns="http://www.w3.org/2000/svg" viewBox="0 0 256 256"><path d="M74.667 56.323c-5.963.435-9.483 1.088-15.311 2.841-39.707 11.941-61.051 54.531-46.9 93.583 8.947 24.69 30.689 42.293 57.517 46.568 5.324.849 110.724.849 116.054.001 17.162-2.732 31.458-10.319 43.126-22.889 19.771-21.298 24.443-54.063 11.423-80.108-10.385-20.775-28.987-34.754-52.203-39.229-4.606-.888-5.665-.907-56.96-.999-28.746-.052-54.282.052-56.746.232m109.866 16.416c23.877 3.913 42.404 22.04 46.529 45.523.913 5.202.913 14.274 0 19.476-3.304 18.811-16.608 35.188-34.295 42.216-1.954.776-5.602 1.932-8.107 2.569l-4.553 1.157H71.893l-4.053-1.016c-2.229-.558-5.577-1.574-7.44-2.258-17.995-6.606-32.059-23.42-35.448-42.379-.908-5.078-.908-14.976 0-20.054 4.133-23.12 22.691-41.252 46.301-45.239 2.454-.414 15.59-.55 56.32-.582 44.937-.035 53.712.055 56.96.587m-13.052 15.616c-8.642.855-17.149 4.935-23.506 11.273-5.251 5.236-8.483 10.803-10.679 18.395-.827 2.857-.974 4.36-.974 9.977 0 5.602.148 7.123.966 9.948 1.433 4.951 2.908 8.218 5.431 12.025 5.145 7.767 12.574 13.362 21.461 16.163 16.875 5.319 35.227-1.257 45.101-16.163 2.523-3.807 3.998-7.074 5.431-12.025.818-2.825.966-4.346.966-9.948s-.148-7.123-.966-9.948c-1.433-4.951-2.908-8.218-5.431-12.025-8.363-12.624-22.417-19.194-37.8-17.672m9.474 16.176c7.7 1.42 15.466 8.435 17.918 16.185 1.238 3.911 1.238 10.657 0 14.568-2.158 6.819-8.257 13.104-14.98 15.434-2.279.791-3.686.962-7.893.962-7.501 0-11.441-1.541-16.562-6.476-5.026-4.843-7.199-10.036-7.199-17.204 0-7.238 2.124-12.251 7.377-17.409 2.536-2.491 7.901-5.414 11.051-6.021 2.703-.521 7.577-.539 10.288-.039" fill="#ffffff"/></svg>
