<svg xmlns="http://www.w3.org/2000/svg" viewBox="0 0 256 256"><path d="M45.289 32.431c-4.292 1.828-6.361 6.693-4.587 10.783.328.755 4.343 5.486 8.922 10.514l8.326 9.142-4.975 2.418c-9.942 4.834-20.159 11.091-28.868 17.678-4.787 3.621-6.503 5.217-7.351 6.837-.852 1.629-.854 5.212-.004 6.847 1.856 3.569 6.368 5.392 9.964 4.025.644-.245 3.392-2.133 6.107-4.196 8.663-6.58 16.152-11.298 24.93-15.705 4.049-2.033 11.146-5.254 11.575-5.254.11 0 15.966 17.355 21.696 23.747l1.59 1.774-3.534 1.159c-5.864 1.924-15.172 5.991-20.6 9.001-8.076 4.479-17.734 11.302-19.231 13.586-3.536 5.397 1.06 12.695 7.599 12.067 1.604-.154 2.684-.624 4.523-1.966 9.084-6.631 17.027-11.271 24.816-14.496 6.867-2.844 17.453-5.995 18.701-5.567.259.089 6.403 6.69 13.655 14.668L131.727 144l-6.877.284c-11.175.46-20.484 2.751-29.917 7.362-4.928 2.41-11.809 6.734-13.181 8.283-.842.953-2.041 4.846-1.768 5.741.087.284.273 1.041.413 1.682.284 1.299 2.439 3.943 3.811 4.678 3.173 1.698 5.708 1.227 10.637-1.973 14.444-9.379 31.572-12.282 47.957-8.127 7.243 1.837 4.979-.271 34.047 31.71 28.835 31.725 27.783 30.73 32.007 30.254 4.372-.492 7.319-4.169 6.946-8.664-.102-1.235-.485-2.694-.85-3.244-1.369-2.059-160.847-177.263-162.396-178.408-1.792-1.326-5.481-1.908-7.267-1.147m65.472 16.504c-6.859.703-8.625 1.392-10.387 4.057-.962 1.456-1.172 2.242-1.162 4.365.015 3.097.915 4.854 3.355 6.546 2.017 1.399 3.292 1.438 17.619.549 26.047-1.618 51.537 3.489 75.572 15.141 10.53 5.104 20.27 11.152 28.486 17.687 1.861 1.479 4 2.948 4.756 3.265 3.709 1.554 8.327-.201 10.248-3.895.854-1.641.847-5.216-.013-6.879-.864-1.671-2.77-3.373-8.835-7.888-25.519-19.001-56.123-30.548-88.023-33.213-7.417-.62-24.366-.478-31.616.265m37.622 50.21c-4.195 1.861-5.897 6.988-3.663 11.035 1.387 2.512 3.038 3.457 8.323 4.759 15.6 3.847 27.053 9.341 41.586 19.949 1.839 1.342 2.919 1.812 4.523 1.966 6.539.628 11.135-6.67 7.599-12.067-1.454-2.219-11.04-9.027-18.815-13.363-8.758-4.883-18.708-8.838-28.701-11.406-5.889-1.514-8.866-1.753-10.852-.873m-24.436 93.585c-2.975 1.018-6.241 4.329-7.242 7.342-.906 2.728-.724 6.773.406 9.014 1.022 2.027 3.509 4.564 5.556 5.665 2.306 1.242 8.213 1.316 10.453.132 7.059-3.731 8.988-12.735 3.982-18.584-3.114-3.638-8.601-5.126-13.155-3.569" fill="#ffffff"/></svg>
