<svg xmlns="http://www.w3.org/2000/svg" viewBox="0 0 256 256"><path d="M112.853 48.698C81.656 51.383 50.804 63.117 25.6 81.883c-8.476 6.311-9.509 7.542-9.509 11.344 0 4.406 3.492 7.893 7.904 7.893 2.299 0 3.983-.844 7.869-3.945 7.859-6.271 17.983-12.543 28.378-17.582 22.161-10.743 44.882-15.753 70.573-15.558 8.143.061 8.842-.113 11.195-2.794.736-.838 1.452-2.048 1.593-2.689.14-.641.32-1.382.399-1.646.3-1-.733-4.251-1.79-5.637-2.136-2.8-3.343-3.043-14.852-2.988-5.632.027-12.16.215-14.507.417m59.734.12c-3.942 1.76-5.602 6.632-3.637 10.674.514 1.056 4.518 5.404 10.236 11.114l9.392 9.378-9.573 9.608c-9.939 9.974-10.898 11.252-10.898 14.515 0 3.652 2.7 6.993 6.091 7.535l1.802.288 1.92-.307c1.806-.288 2.515-.899 11.954-10.307l10.035-10.002 9.165 9.198c5.041 5.059 9.989 9.687 10.994 10.285 6.228 3.706 14.021-2.662 11.459-9.363-.524-1.37-3.016-4.13-10.296-11.404-5.282-5.278-9.604-9.791-9.604-10.03 0-.239 4.322-4.752 9.604-10.03 10.45-10.441 11.25-11.563 10.699-15.011-.641-4.01-3.837-6.746-7.882-6.746-1.223 0-2.838.31-3.589.689-.751.379-5.689 4.985-10.973 10.236l-9.608 9.547-9.592-9.639c-5.276-5.301-10.21-9.908-10.966-10.236-1.719-.747-5.05-.743-6.733.008m-55.254 47.635c-14.106 1.242-29.043 5.244-41.971 11.244-10.312 4.786-24.679 14.297-26.37 17.457-2.995 5.595 1.514 12.309 7.856 11.7 1.606-.154 2.682-.623 4.523-1.968 12.345-9.023 22.333-14.202 34.616-17.949 11.294-3.445 20.22-4.724 32.976-4.724 7.336 0 9.132-.12 10.258-.688 4.226-2.132 5.924-6.846 3.903-10.832-.75-1.477-2.716-3.263-4.244-3.853-1.674-.647-15.731-.899-21.547-.387m1.92 48.015c-12.817 1.806-23.123 5.591-33.022 12.125-2.019 1.333-4.034 2.835-4.479 3.336-.842.953-2.041 4.846-1.768 5.741.087.284.273 1.041.413 1.682.284 1.299 2.439 3.943 3.811 4.678 3.173 1.698 5.708 1.227 10.637-1.974 10.66-6.923 20.489-9.84 33.155-9.84s22.495 2.917 33.155 9.84c4.929 3.201 7.464 3.672 10.637 1.974 1.372-.735 3.527-3.379 3.811-4.678.14-.641.326-1.398.413-1.682.273-.895-.926-4.788-1.768-5.741-2.691-3.039-14.371-9.384-21.932-11.911-8.475-2.834-12.134-3.414-22.609-3.583-5.046-.081-9.75-.066-10.454.033m4.694 48.262c-2.975 1.018-6.241 4.329-7.242 7.342-.906 2.728-.724 6.773.406 9.014 1.022 2.027 3.509 4.564 5.556 5.665 2.306 1.242 8.213 1.316 10.453.132 7.059-3.731 8.988-12.735 3.982-18.584-3.114-3.638-8.601-5.126-13.155-3.569" fill="#ffffff"/></svg>
