<svg xmlns="http://www.w3.org/2000/svg" viewBox="0 0 256 256"><path d="M115.627 48.465c-.822.092-3.606.377-6.187.633-30.064 2.988-60.399 15.041-85.432 33.947-6.816 5.148-7.917 6.563-7.917 10.182 0 4.406 3.492 7.893 7.904 7.893 2.396 0 3.847-.774 9.285-4.955 19.042-14.64 40.937-24.525 64.545-29.142 11.112-2.173 17.625-2.771 30.175-2.771s19.063.598 30.175 2.771c23.576 4.61 45.529 14.522 64.545 29.142 5.438 4.181 6.889 4.955 9.285 4.955 4.412 0 7.904-3.487 7.904-7.893 0-3.619-1.101-5.034-7.917-10.182-24.566-18.553-52.114-29.703-83.512-33.802-5.027-.656-28.874-1.221-32.853-.778m1.28 48.029c-21.115 1.966-40.124 8.719-58.027 20.614-5.648 3.752-9.089 6.552-9.888 8.046-2.995 5.595 1.514 12.309 7.856 11.7 1.606-.154 2.682-.623 4.523-1.968 14.775-10.799 26.861-16.494 42.736-20.138 7.774-1.784 14.849-2.535 23.893-2.535s16.119.751 23.893 2.535c15.875 3.644 27.961 9.339 42.736 20.138 1.841 1.345 2.917 1.814 4.523 1.968 6.342.609 10.851-6.105 7.856-11.7-1.25-2.337-10.992-9.267-19.915-14.167-20.755-11.399-46.447-16.705-70.186-14.493m2.346 47.974c-12.817 1.806-23.123 5.591-33.022 12.125-2.019 1.333-4.034 2.835-4.479 3.336-.842.953-2.041 4.846-1.768 5.741.087.284.273 1.041.413 1.682.284 1.299 2.439 3.943 3.811 4.678 3.173 1.698 5.708 1.227 10.637-1.974 10.66-6.923 20.489-9.84 33.155-9.84s22.495 2.917 33.155 9.84c4.929 3.201 7.464 3.672 10.637 1.974 1.372-.735 3.527-3.379 3.811-4.678.14-.641.326-1.398.413-1.682.273-.895-.926-4.788-1.768-5.741-2.691-3.039-14.371-9.384-21.932-11.911-8.475-2.834-12.134-3.414-22.609-3.583-5.046-.081-9.75-.066-10.454.033m4.694 48.262c-2.975 1.018-6.241 4.329-7.242 7.342-.906 2.728-.724 6.773.406 9.014 1.022 2.027 3.509 4.564 5.556 5.665 2.306 1.242 8.213 1.316 10.453.132 7.059-3.731 8.988-12.735 3.982-18.584-3.114-3.638-8.601-5.126-13.155-3.569" fill="#ffffff"/></svg>
