<svg xmlns="http://www.w3.org/2000/svg" viewBox="0 0 256 256"><path d="M58.833 48.833c-3.899 1.454-7.571 4.739-9.209 8.237-1.243 2.657-1.817 6.193-1.829 11.275l-.008 3.705-9.92.135c-9.733.132-9.966.157-12.36 1.278-5.032 2.359-8.409 6.837-9.274 12.297-.243 1.53-.441 9.778-.443 18.401l-.003 15.627-5.04.18c-5.694.203-6.936.673-9.208 3.485C.346 124.928.213 125.384.213 128c0 2.601.138 3.08 1.305 4.547 2.221 2.791 4.309 3.56 9.666 3.56h4.603l.003 15.68c.002 8.659.2 16.921.443 18.453.865 5.46 4.242 9.938 9.274 12.297 2.394 1.121 2.625 1.145 12.297 1.271l9.857.128.238 5.687c.197 4.685.423 6.144 1.287 8.282 1.676 4.149 4.728 7.201 8.963 8.964 2.614 1.087 2.828 1.105 15.451 1.262 13.932.174 17.736-.136 21.216-1.729 4.283-1.961 7.776-6.453 8.811-11.33.328-1.544.48-11.246.48-30.613v-28.352h47.786v28.352c0 19.367.152 29.069.48 30.613 1.035 4.877 4.528 9.369 8.811 11.33 3.48 1.593 7.284 1.903 21.216 1.729 12.623-.157 12.837-.175 15.451-1.262 4.235-1.763 7.287-4.815 8.963-8.964.864-2.138 1.09-3.597 1.287-8.282l.238-5.687 9.868-.128 9.869-.128 2.841-1.4c3.133-1.544 6.107-4.489 7.535-7.462 1.475-3.071 1.755-6.74 1.758-23.031l.003-15.68h4.603c5.357 0 7.445-.769 9.666-3.56 1.167-1.467 1.305-1.946 1.305-4.547 0-2.616-.133-3.072-1.326-4.547-2.272-2.812-3.514-3.282-9.208-3.485l-5.04-.18-.003-15.627c-.002-8.623-.2-16.871-.443-18.401-.865-5.46-4.242-9.938-9.274-12.297-2.394-1.121-2.627-1.146-12.36-1.278l-9.92-.135-.008-3.705c-.023-10.033-2.653-15.322-9.29-18.684l-2.435-1.234H163.627l-2.348 1.101c-4.404 2.066-7.866 6.497-8.906 11.4-.328 1.544-.48 11.246-.48 30.613v28.352h-47.786V91.541c0-19.367-.152-29.069-.48-30.613-1.04-4.903-4.502-9.334-8.906-11.4l-2.348-1.101-16-.085c-12.531-.065-16.334.041-17.54.491M87.893 128v64H64V64h23.893v64M192 128v64h-23.893V64H192v64m-144.213 0v40.107H32V87.893H47.787V128M224 128v40.107H208.213V87.893H224V128" fill-rule="evenodd" fill="#ffffff"/></svg>
