<svg xmlns="http://www.w3.org/2000/svg" viewBox="0 0 256 256"><path d="M126.08 24.28c-2.882.716-5.004 2.779-5.764 5.601-.299 1.111-.412 8.917-.331 22.985l.122 21.301 1.28 1.812c3.342 4.73 9.884 4.73 13.226.001l1.28-1.811.214-12.953.213-12.953 21.061 15.8c15.927 11.948 20.941 15.92 20.571 16.295-.269.272-6.089 4.719-12.932 9.882-6.843 5.163-12.836 9.929-13.318 10.591-.692.952-.875 1.854-.875 4.3 0 2.735.139 3.278 1.198 4.666 2.315 3.035 6.875 4.183 9.95 2.505.735-.401 9.138-6.585 18.675-13.742 15.872-11.912 17.429-13.192 18.398-15.124.582-1.161 1.059-2.655 1.059-3.32 0-1.555-1.061-4.087-2.261-5.396-.959-1.047-62.303-47.236-65.379-49.227-1.875-1.214-4.429-1.699-6.387-1.213m-73.436 8.51c-4.481 2.102-5.941 7.688-3.082 11.797.549.789 16.742 18.733 35.985 39.875 19.242 21.142 35.026 38.579 35.073 38.749.048.17-13.637 10.581-30.411 23.136-16.774 12.554-31.155 23.498-31.957 24.32-2.944 3.014-2.986 7.243-.106 10.524 2.279 2.595 5.87 3.442 8.961 2.112.755-.325 12.893-9.241 26.973-19.814l25.6-19.222.213 41.04c.196 37.709.273 41.148.945 42.376.992 1.812 3.019 3.446 4.935 3.978 2.021.561 2.935.537 4.787-.128.821-.295 13.095-9.241 27.275-19.88l25.782-19.344 1.528 1.659c.841.912 7.047 7.734 13.791 15.159 9.687 10.664 12.624 13.644 13.979 14.187 3.327 1.331 6.361.667 8.819-1.93 2.37-2.504 2.907-5.556 1.508-8.567-.404-.871-6.029-7.399-12.5-14.507a13257.98 13257.98 0 0 1-16.213-17.837C149.346 130.572 61.596 34.397 60.457 33.528c-2.06-1.571-5.371-1.884-7.813-.738m91.132 117.08c3.79 2.897 8.221 7.531 26.06 27.256l2.948 3.26-16.952 12.704a24950.075 24950.075 0 0 0-18.339 13.752l-1.386 1.046V144.16l1.813 1.31c.997.72 3.632 2.7 5.856 4.4" fill-rule="evenodd" fill="#ffffff"/></svg>
