<svg xmlns="http://www.w3.org/2000/svg" viewBox="0 0 256 256"><path d="M124.587 72.782 C 123.001 73.464,43.577 152.473,41.552 155.382 C 40.334 157.133,39.856 159.598,40.288 161.902 C 40.845 164.871,44.856 168.088,48.000 168.088 C 51.357 168.088,51.766 167.712,90.560 128.945 L 128.000 91.531 165.440 128.945 C 204.234 167.712,204.643 168.088,208.000 168.088 C 211.144 168.088,215.155 164.871,215.712 161.902 C 216.144 159.598,215.666 157.133,214.448 155.382 C 213.847 154.519,195.255 135.725,173.131 113.618 C 144.859 85.366,132.435 73.227,131.320 72.765 C 129.331 71.939,126.530 71.947,124.587 72.782 " stroke="none" fill="#ffffff"></path></svg>
