<svg xmlns="http://www.w3.org/2000/svg" viewBox="0 0 256 256"><path d="M44.525 32.44c-4.466.892-9.004 4.631-11.117 9.16l-1.195 2.56v167.68l1.194 2.56c1.567 3.36 4.854 6.66 8.148 8.183l2.605 1.204h167.68l2.605-1.204c3.294-1.523 6.581-4.823 8.148-8.183l1.194-2.56V44.16l-1.204-2.605c-1.523-3.294-4.823-6.581-8.183-8.148l-2.56-1.194-82.773-.063c-45.526-.034-83.569.096-84.542.29m35.26 64.307-.001 48.533-2.694 1.392c-7.686 3.975-12.459 11.319-12.959 19.941-.413 7.147 1.886 13.151 6.996 18.26 5.109 5.11 11.113 7.409 18.26 6.996 10.15-.588 18.53-7.16 21.593-16.936 1.117-3.564 1.21-9.386.212-13.224-1.632-6.271-6.846-12.528-12.734-15.283l-2.449-1.146-.005-14.932L96 115.416l23.893 23.891 23.894 23.89v45.016H48.213v-160h31.574l-.002 48.534m48.224-35.84c.009 11.505.085 12.853.809 14.4.493 1.052 3.973 4.861 9.082 9.94l8.282 8.234-1.031 3.073c-1.302 3.876-1.443 9.869-.323 13.717 2.235 7.681 7.732 13.651 15.01 16.305 3.933 1.434 9.521 1.773 13.554.822 8.672-2.045 15.961-9.334 18.006-18.006 1.45-6.149.055-13.662-3.492-18.812-3.298-4.788-9.234-8.854-14.535-9.954-3.488-.724-10.455-.338-13.426.745l-2.402.875-6.665-6.675-6.665-6.674V48.213h63.574v160H160l-.009-24.853c-.009-23.407-.056-24.953-.81-26.56-.546-1.163-10.737-11.628-31.991-32.852L96 92.802V48.213h32l.009 12.694m42.976 35.749c3.12 1.304 4.802 3.917 4.802 7.462 0 2.41-.413 3.453-2.079 5.253-1.556 1.681-3.27 2.49-5.343 2.521-5.311.08-8.956-4.064-8.172-9.291.246-1.64.684-2.399 2.344-4.058 1.123-1.123 2.499-2.129 3.059-2.234 2.116-.401 3.87-.287 5.389.347m-80.92 63.629c.887.177 2.185 1.044 3.433 2.292 1.625 1.625 2.064 2.391 2.309 4.024.784 5.227-2.861 9.371-8.172 9.291-2.207-.033-3.925-.905-5.645-2.865-1.618-1.842-1.938-2.973-1.689-5.976.402-4.843 4.652-7.788 9.764-6.766" fill-rule="evenodd" fill="#ffffff" /></svg>
