<svg xmlns="http://www.w3.org/2000/svg" viewBox="0 0 256 256"><path d="M120.747 24.32c-36.774 2.49-69.769 24.672-85.996 57.813-4.911 10.029-8.131 20.412-9.858 31.787-1.031 6.787-1.031 21.373 0 28.16 4.764 31.37 21.891 57.697 48.353 74.329 11.472 7.21 26.044 12.476 40.674 14.698 6.787 1.031 21.373 1.031 28.16 0 22.397-3.401 41.936-12.867 57.655-27.929 17.075-16.362 27.729-37.111 31.372-61.098 1.031-6.787 1.031-21.373 0-28.16-4.729-31.139-21.768-57.479-47.891-74.037-8.792-5.573-22.599-11.233-32.603-13.367-9.311-1.986-20.649-2.82-29.866-2.196m21.333 16.834c19.109 3.239 36.245 12.257 49.361 25.976 12.55 13.128 20.413 28.932 23.472 47.179 1.06 6.324 1.06 21.058 0 27.382-6.527 38.929-36.939 68.547-75.522 73.549-40.225 5.216-78.605-17.63-93.515-55.665-1.924-4.908-3.769-11.797-4.789-17.884-1.06-6.324-1.06-21.058 0-27.382C44.276 95.29 52.463 79.297 65.88 65.88c14.813-14.813 31.75-22.813 54.013-25.512 3.334-.404 18.293.126 22.187.786M124.8 64.806c-2.065.954-3.365 2.304-4.246 4.413-.574 1.374-.66 5.359-.658 30.501.001 19.784.151 29.456.473 30.617.604 2.175 3.119 4.69 5.294 5.294 1.161.322 10.863.472 30.727.473l29.029.003 1.879-.96c1.034-.528 2.466-1.698 3.184-2.6 1.167-1.467 1.305-1.946 1.305-4.547 0-2.616-.133-3.072-1.326-4.547-.728-.902-1.976-2.024-2.773-2.493-1.397-.823-2.333-.858-26.515-.976l-25.066-.123-.01-24.624c-.008-23.027-.06-24.734-.797-26.33-1.93-4.182-6.477-5.958-10.5-4.101" fill="#ffffff"/></svg>
