<svg xmlns="http://www.w3.org/2000/svg" viewBox="0 0 256 256"><path d="M123.871 17.289c-.98.588-2.228 1.786-2.773 2.663-.945 1.52-.998 2.028-1.128 10.875l-.136 9.28-6.05.001c-9.833.002-16.39 1.518-24.184 5.591-18.021 9.417-28.365 30.194-24.935 50.088 1.315 7.627 4.754 15.536 9.369 21.546 2.406 3.133 7.945 8.364 10.982 10.373 3.202 2.116 8.355 4.632 11.843 5.781 5.044 1.662 8.656 2.227 15.888 2.487l7.146.258v63.96l-10.773-.201c-12.07-.226-13.524-.476-19.307-3.323-10.272-5.058-17.706-16.6-17.706-27.49 0-4.031-1.669-6.877-4.907-8.372-4.284-1.977-9.361.351-10.894 4.996-.885 2.683.246 11.539 2.23 17.451 2.372 7.073 6.6 13.734 12.11 19.081 3.915 3.799 6.792 5.891 11.23 8.165 8.571 4.393 13.731 5.394 27.803 5.394h10.155l.136 9.28c.131 8.862.182 9.353 1.134 10.884 3.116 5.012 10.676 5.012 13.792 0 .952-1.531 1.003-2.022 1.134-10.884l.136-9.28h10.155c14.072 0 19.232-1.001 27.803-5.394 9.966-5.107 18.509-14.527 22.39-24.686 2.909-7.618 3.974-15.042 3.207-22.365-2.209-21.098-17.21-37.901-37.801-42.342-2.979-.642-6.302-.885-14.827-1.083l-10.986-.255V55.761l6.506.262c7.622.306 11.886 1.247 16.074 3.548 6.137 3.371 11.395 8.76 14.123 14.476 1.595 3.342 2.977 8.604 2.977 11.334 0 3.164.818 6.246 2.047 7.706 2.16 2.567 6.208 3.593 9.166 2.324 1.674-.718 3.933-3.036 4.547-4.665 1.053-2.792.178-10.689-1.931-17.432-3.576-11.436-12.446-21.987-23.216-27.615-7.794-4.073-14.351-5.589-24.184-5.591l-6.05-.001-.136-9.28c-.131-8.862-.182-9.353-1.134-10.884-2.253-3.623-7.357-4.852-11.025-2.654m-3.978 70.604v32h-6.118c-7.327 0-11.047-.789-16.495-3.498-2.947-1.466-4.39-2.567-7.698-5.873-3.439-3.437-4.385-4.698-6.093-8.122-2.438-4.888-3.258-8.538-3.268-14.545-.02-12.125 6.121-22.296 17.059-28.253 4.821-2.626 9.364-3.547 18.027-3.653l4.586-.056v32m42.027 49.646c4.892 1.687 8.911 4.208 12.622 7.919 5.924 5.924 8.828 12.439 9.236 20.716.306 6.218-.552 10.611-3.087 15.799-3.086 6.315-8.382 11.68-14.504 14.695-5.783 2.847-7.237 3.097-19.307 3.323l-10.773.201v-64.168l11.2.169c10.899.165 11.291.201 14.613 1.346" fill="#ffffff"/></svg>
