<svg xmlns="http://www.w3.org/2000/svg" viewBox="0 0 256 256"><path d="M125.11 24.368c-5.04.839-3.978-.13-47.59 43.408-22.484 22.446-41.563 41.732-42.398 42.857-.834 1.126-1.878 3.207-2.32 4.625-.766 2.462-.802 4.831-.802 52.432 0 34.118.143 50.234.453 51.056.614 1.629 2.873 3.947 4.547 4.665 1.129.485 7.329.587 34.986.58 31.689-.009 33.713-.055 35.338-.793 2.333-1.06 3.866-3.002 4.425-5.607.308-1.436.464-11.503.464-29.879V160h31.574v27.712c0 18.376.156 28.443.464 29.879.559 2.605 2.092 4.547 4.425 5.607 1.625.738 3.649.784 35.338.793 27.657.007 33.857-.095 34.986-.58 1.674-.718 3.933-3.036 4.547-4.665.31-.822.453-16.938.453-51.056 0-47.601-.036-49.97-.802-52.432-.442-1.418-1.486-3.499-2.32-4.625-.835-1.125-19.914-20.411-42.398-42.857-32.451-32.395-41.332-41.035-43.072-41.903-1.763-.878-6.877-2.136-7.835-1.927-.117.026-1.226.216-2.463.422" fill="#ffffff"/></svg>