<svg xmlns="http://www.w3.org/2000/svg" viewBox="0 0 256 256"><path d="M156.8 8.711c-1.732.773-1.743.785-62.104 65.463-29.396 31.498-53.424 57.59-53.831 58.453-1.463 3.101-.751 6.794 1.774 9.214.908.869 8.633 3.947 30.594 12.191 27.797 10.434 29.374 11.082 29.267 12.018-.063.545-3.394 17.409-7.404 37.476-8.117 40.628-7.848 38.364-4.951 41.663 3.075 3.503 7.914 3.69 11.343.438 4.906-4.652 113.048-120.985 113.647-122.255 1.463-3.1.751-6.793-1.774-9.213-.908-.869-8.633-3.947-30.594-12.191C154.97 91.534 153.393 90.886 153.5 89.95c.063-.545 3.394-17.409 7.404-37.476 6.705-33.561 7.25-36.632 6.802-38.299-.587-2.177-2.696-4.7-4.592-5.492-1.741-.727-4.65-.714-6.314.028M141.228 68.9c-2.817 14.073-5.121 26.299-5.121 27.169 0 2.889 1.678 5.612 4.307 6.986.609.318 12.705 4.924 26.88 10.234 14.175 5.311 25.918 9.796 26.096 9.968.178.171-18.538 20.523-41.59 45.224-23.052 24.702-41.966 44.754-42.031 44.559-.065-.195 2.186-11.868 5.003-25.94 2.817-14.073 5.121-26.299 5.121-27.169 0-2.889-1.678-5.612-4.307-6.986-.609-.318-12.705-4.924-26.88-10.234-14.175-5.311-25.918-9.796-26.096-9.968-.178-.171 18.538-20.523 41.59-45.224 23.052-24.702 41.966-44.754 42.031-44.559.065.195-2.186 11.868-5.003 25.94" fill="#ffffff"/></svg>
