<svg xmlns="http://www.w3.org/2000/svg" viewBox="0 0 256 256"><path d="M119.748 8.788c-15.568 2.813-28.541 12.808-35.275 27.178-3.759 8.02-4.677 14.416-4.683 32.607l-.003 11.614-18.027.12-18.027.12-2.447 1.147c-2.774 1.3-6.24 4.542-7.49 7.007-1.854 3.654-1.851 3.569-1.714 64.806l.131 58.453 1.194 2.56c1.567 3.36 4.854 6.66 8.148 8.183l2.605 1.204h167.68l2.605-1.204c3.294-1.523 6.581-4.823 8.148-8.183l1.194-2.56.131-58.453c.137-61.237.14-61.152-1.714-64.806-1.25-2.465-4.716-5.707-7.49-7.007l-2.447-1.147-18.027-.12-18.027-.12V68.573c0-13.464-.462-19.427-1.936-24.998-5.541-20.946-24.855-35.614-46.653-35.43-2.492.021-6.036.31-7.876.643m16.761 16.444c9.617 2.536 18.644 10.942 21.733 20.236 1.486 4.47 1.751 7.705 1.755 21.412L160 80.213H96l.003-13.333c.002-7.333.204-14.569.449-16.079 1.122-6.914 3.92-12.178 9.319-17.532 8.204-8.136 19.333-11.046 30.738-8.037m71.278 126.875v56.106H48.213V96h159.574v56.107" fill="#ffffff"/></svg>
