<svg xmlns="http://www.w3.org/2000/svg" viewBox="0 0 256 256"><path d="M194.56 32.46c-11.567 1.135-22.961 4.389-32.987 9.42-8.79 4.411-14.759 8.678-23.495 16.793l-5.699 5.295-30.883.123-30.883.122-2.986 1.411c-2.78 1.313-4.294 2.719-21.827 20.267-20.164 20.181-20.459 20.535-21.496 25.803-1.488 7.562 3.369 15.53 10.866 17.827 1.19.364 10.871 1.871 21.513 3.348l19.35 2.685 22.206 22.207 22.207 22.206 2.685 19.35c1.477 10.642 2.984 20.323 3.348 21.513 1.763 5.755 6.416 9.732 12.754 10.9 2.251.414 3.315.408 5.286-.03 5.141-1.143 5.599-1.528 25.354-21.288 10.241-10.244 19.105-19.412 19.697-20.373 2.452-3.977 2.43-3.643 2.43-36.332v-30.031l5.283-5.69c11.848-12.762 18.279-23.6 22.671-38.207 3.282-10.916 4.997-27.289 3.619-34.555-.954-5.03-4.378-9.336-9.229-11.606-2.749-1.287-3.081-1.338-9.291-1.445-3.542-.061-8.264.068-10.493.287m13.227 21.139c0 15.107-4.607 29.868-13.365 42.828-2.7 3.995-6.454 7.916-34.719 36.266l-31.692 31.787-18.245-18.246-18.246-18.245 31.787-31.706c28.567-28.495 32.241-32.012 36.28-34.726 8.2-5.511 16.856-9.315 25.974-11.415 6.292-1.449 9.455-1.811 16.359-1.875l5.867-.054v5.386M96.609 99.87l-19.657 19.656-17.249-2.386c-9.487-1.312-17.804-2.498-18.481-2.636-1.183-.241-.56-.922 15.785-17.271l17.016-17.02H116.266L96.609 99.87m62.241 99.04c-9.32 9.323-17.007 16.889-17.081 16.814-.075-.074-1.286-8.368-2.691-18.429l-2.555-18.294 19.525-19.529 19.525-19.529.111 21.009.111 21.009-16.945 16.949m-96.557-43.377c-11.751 6.172-21.275 17.949-26.056 32.222-3.214 9.592-5.327 26.898-3.784 30.991.614 1.629 2.873 3.947 4.547 4.665 2.702 1.159 13.335.533 22.363-1.318 12.714-2.606 23.187-7.843 31.345-15.675 4.479-4.3 7.258-7.934 9.774-12.779 2.645-5.095 2.607-8.272-.136-11.17-1.674-1.77-3.176-2.416-5.619-2.416-3.946 0-6.098 1.572-8.41 6.141-5.398 10.67-18.274 18.665-33.624 20.878l-3.84.553-.129-1.356c-.201-2.112 1.783-11.085 3.391-15.336 3.547-9.375 10.351-17.536 17.736-21.273 3.423-1.731 5.141-3.456 5.862-5.885.941-3.167.22-5.849-2.182-8.121-2.897-2.741-6.181-2.777-11.238-.121" fill-rule="evenodd" fill="#ffffff"/></svg>
