<svg xmlns="http://www.w3.org/2000/svg" viewBox="0 0 256 256"><path d="M149.76 24.384c-.967.26-14.053 10.172-37.108 28.106L77.037 80.194l-24.759.116-24.758.117-2.435 1.234c-5.038 2.552-8.14 6.939-8.928 12.625-.242 1.749-.358 16.432-.283 35.935L16 163.2l1.117 2.651c1.786 4.237 4.795 7.246 9.032 9.032L28.8 176l24.533.213 24.534.214 34.732 27.052c19.103 14.879 35.304 27.337 36.002 27.685 3.387 1.69 7.273.661 9.881-2.617l1.305-1.639.116-97.988c.13-108.79.355-100.174-2.692-102.85-1.375-1.207-3.908-2.222-5.318-2.13-.352.023-1.312.223-2.133.444m-6.078 143.272-.109 39.655-27.832-21.629-27.833-21.629V91.947l27.833-21.629 27.832-21.629.109 39.655c.06 21.811.06 57.501 0 79.312M72.107 128v32H32V96h40.107v32" fill="#ffffff"/></svg>
