<svg xmlns="http://www.w3.org/2000/svg" viewBox="0 0 256 256"><path d="M124.8 8.741c-.704.331-1.586.851-1.96 1.157-.619.505-79.029 102.267-81.453 105.711-.752 1.069-1.08 2.184-1.19 4.053-.134 2.271-.002 2.812 1.11 4.543.837 1.302 1.9 2.274 3.153 2.88 1.799.871 2.482.915 14.341.915 6.849 0 12.452.105 12.452.232 0 .128-10.084 13.195-22.409 29.037-12.325 15.843-22.872 29.514-23.438 30.381-1.345 2.062-1.7 4.202-1.08 6.507.632 2.346 3.067 4.844 5.337 5.474 1.188.33 14.983.472 45.964.473l44.266.003.01 20.586c.008 19.128.065 20.708.799 22.294 3.057 6.601 11.539 6.601 14.596 0 .734-1.586.791-3.166.799-22.294l.01-20.586 44.266-.003c30.981-.001 44.776-.143 45.964-.473 3.574-.992 6.182-5.207 5.547-8.964-.349-2.068.621-.763-25.718-34.614L184.337 128h12.657c12.026 0 12.75-.045 14.526-.905 2.831-1.371 4.16-3.661 4.16-7.171 0-2.293-.192-3.076-1.053-4.297-2.587-3.67-79.238-103.217-80.61-104.69-.845-.907-2.155-1.915-2.91-2.24-1.747-.751-4.657-.731-6.307.044m35.185 61.976c17.373 22.586 31.588 41.154 31.588 41.263 0 .109-6.015.255-13.367.323l-13.367.124-1.613 1.23c-2.824 2.155-3.974 6.235-2.634 9.343.325.756 10.981 14.717 23.679 31.027l23.087 29.653-39.679.109c-21.823.06-57.545.06-79.381 0l-39.703-.109 23.461-30.17c21.327-27.426 23.487-30.349 23.757-32.149.537-3.585-1.017-6.732-4.103-8.306-1.534-.783-2.552-.842-14.502-.842-7.069 0-12.788-.165-12.71-.367.353-.913 63.309-82.399 63.586-82.302.172.06 14.527 18.588 31.901 41.173" fill-rule="evenodd" fill="#ffff"/></svg>
