<svg xmlns="http://www.w3.org/2000/svg" viewBox="0 0 256 256"><path d="M72.533 48.868c-11.771 2.023-23.683 7.664-35.141 16.64-4.389 3.439-5.61 5.457-5.294 8.749.397 4.128 3.726 7.236 7.751 7.236 2.703 0 3.387-.344 8.83-4.434 13.183-9.908 26.067-14.164 38.368-12.673 9.728 1.179 17.439 4.202 36.298 14.229 19.753 10.503 26.713 13.473 37.082 15.827 17.177 3.899 34.451.154 51.416-11.148 9.546-6.36 12.171-9.142 12.148-12.878-.022-3.419-2.68-6.812-6.049-7.719-2.706-.728-5.119.083-8.875 2.983-12.424 9.593-23.622 14.129-34.968 14.164-5.214.017-8.674-.481-13.949-2.004-7.772-2.244-12.76-4.533-30.377-13.936-18.662-9.961-27.602-13.428-39.32-15.253-3.751-.583-13.984-.46-17.92.217m1.92 55.724c-11.838 1.497-25.569 7.754-36.906 16.818-3.414 2.73-4.505 3.897-5.092 5.444-1.123 2.964.053 7.022 2.592 8.943 1.503 1.137 4.56 2.153 5.547 1.843.319-.1 1.092-.294 1.718-.43.626-.137 3.195-1.793 5.71-3.68 18.543-13.916 34.153-16.688 53.525-9.504 3.804 1.411 7.427 3.202 31.573 15.615 16.994 8.736 26.164 11.636 38.347 12.127 10.949.441 19.921-1.564 30.9-6.906 6.805-3.31 17.256-10.527 20.045-13.841 2.118-2.517 1.962-7.044-.338-9.777-1.468-1.745-3.574-2.631-6.245-2.629-2.597.002-3.073.248-8.746 4.523-9.696 7.307-19.049 11.358-28.969 12.546-6.456.773-12.759-.059-20.887-2.759-6.008-1.996-11.722-4.644-23.035-10.675-20.988-11.19-28.124-14.274-38.405-16.596-6.763-1.528-14.572-1.917-21.334-1.062m2.987 55.698c-11.045.946-22.653 5.282-33.325 12.448-9.617 6.456-12.129 9.122-12.106 12.846.022 3.412 2.68 6.812 6.032 7.714 2.881.776 4.784.168 8.62-2.753 19.188-14.612 34.506-17.75 53.527-10.965 5.848 2.086 12.021 5.029 23.545 11.224 15.833 8.512 21.082 10.932 29.753 13.718 17.114 5.498 32.198 4.396 48.541-3.546 9.186-4.465 19.559-11.939 21.16-15.247 2.639-5.45-1.743-11.647-7.875-11.138-2.372.196-2.157.072-10.002 5.816-7.608 5.57-16.597 9.548-24.83 10.985-8.05 1.405-17.392.035-27.669-4.06-5.311-2.116-8.055-3.477-23.318-11.574-19.486-10.337-27.852-13.512-39.893-15.137-4.195-.566-8.16-.674-12.16-.331" fill-rule="evenodd" fill="#ffff"/></svg>
