<svg xmlns="http://www.w3.org/2000/svg" viewBox="0 0 256 256"><path d="M119.253 144.468c-12.817 1.806-23.123 5.591-33.022 12.125-2.019 1.333-4.034 2.835-4.479 3.336-.842.953-2.041 4.846-1.768 5.741.087.284.273 1.041.413 1.682.284 1.299 2.439 3.943 3.811 4.678 3.173 1.698 5.708 1.227 10.637-1.974 10.66-6.923 20.489-9.84 33.155-9.84s22.495 2.917 33.155 9.84c4.929 3.201 7.464 3.672 10.637 1.974 1.372-.735 3.527-3.379 3.811-4.678.14-.641.326-1.398.413-1.682.273-.895-.926-4.788-1.768-5.741-2.691-3.039-14.371-9.384-21.932-11.911-8.475-2.834-12.134-3.414-22.609-3.583-5.046-.081-9.75-.066-10.454.033m4.694 48.262c-2.975 1.018-6.241 4.329-7.242 7.342-.906 2.728-.724 6.773.406 9.014 1.022 2.027 3.509 4.564 5.556 5.665 2.306 1.242 8.213 1.316 10.453.132 7.059-3.731 8.988-12.735 3.982-18.584-3.114-3.638-8.601-5.126-13.155-3.569" fill="#ffffff"/></svg>
