<svg xmlns="http://www.w3.org/2000/svg" viewBox="0 0 256 256"><path d="M186.352 32.412c-5.526 1.01-10.711 3.54-15.119 7.377-1.683 1.465-8.962 8.969-16.175 16.674-10.506 11.224-13.291 13.974-14.006 13.829-.491-.1-19.449-6.932-42.129-15.183C69.61 44.445 57.175 40.107 55.919 40.107c-.971 0-2.479.369-3.349.821-.871.452-7.465 6.74-14.654 13.974-14.029 14.117-14.409 14.616-13.838 18.189.154.962.681 2.399 1.172 3.193.67 1.084 9.03 6.87 33.535 23.208l32.643 21.765-7.416 7.425-7.416 7.425H65.374c-10.245 0-11.359.071-12.804.821-.871.452-7.465 6.74-14.654 13.974-14.04 14.127-14.407 14.61-13.838 18.208.36 2.28 1.997 4.75 3.76 5.673.764.4 9.624 4.026 19.689 8.058l18.301 7.331 7.331 18.301c4.032 10.065 7.65 18.909 8.039 19.653 1.504 2.871 5.653 4.547 8.898 3.595 1.585-.464 3.769-2.449 15.229-13.838 7.417-7.372 13.644-13.908 13.974-14.669.458-1.059.594-3.939.594-12.592v-11.218l7.424-7.414 7.423-7.414 21.757 32.619c11.967 17.941 22.249 32.942 22.849 33.335 1.968 1.29 4.544 1.74 6.681 1.168 1.707-.458 3.377-1.965 15.071-13.6 7.234-7.196 13.522-13.797 13.974-14.668.452-.87.821-2.378.821-3.349 0-1.256-4.338-13.691-15.002-43.004-8.251-22.68-15.083-41.64-15.183-42.131-.147-.718 2.626-3.526 14.041-14.223 15.638-14.653 18.36-17.53 20.558-21.732 2.715-5.189 3.48-8.483 3.48-14.991 0-4.845-.159-6.268-1-8.96-3.29-10.537-11.184-18.479-21.614-21.744-3.347-1.047-11.324-1.524-14.821-.884m12.475 17.135c2.946 1.4 6.08 4.544 7.587 7.612.93 1.894 1.189 3.095 1.308 6.072.182 4.572-.575 7.126-3.068 10.336-.976 1.257-9.184 9.227-18.24 17.712-9.98 9.35-16.85 16.11-17.441 17.163-.816 1.45-.935 2.131-.726 4.14.172 1.649 5 15.41 15.366 43.791l15.115 41.387-6.787 6.827c-4.249 4.273-6.903 6.645-7.098 6.342-.17-.266-9.91-14.891-21.643-32.5-23.467-35.217-22.679-34.216-26.938-34.216-1.228 0-2.774.204-3.434.452-1.783.67-26.927 25.83-27.905 27.922-.714 1.527-.799 2.87-.807 12.805l-.009 11.098-6.599 6.589-6.599 6.588-.613-1.473c-.338-.811-3.028-7.509-5.979-14.884-4.076-10.189-5.691-13.746-6.721-14.809-1.092-1.127-4.107-2.496-15.476-7.029-7.766-3.097-14.481-5.813-14.923-6.036-.705-.357.002-1.213 5.755-6.975l6.558-6.568 11.098-.009c9.921-.008 11.28-.094 12.805-.805 1.122-.522 6.181-5.307 14.766-13.964 11.798-11.896 13.105-13.354 13.526-15.088.728-2.996-.068-5.633-2.335-7.736-.665-.617-15.418-10.579-32.783-22.137-17.366-11.558-31.661-21.093-31.768-21.188-.108-.095 2.868-3.215 6.613-6.934l6.808-6.76 42.022 15.311c31.267 11.391 42.5 15.31 43.889 15.31 1.124 0 2.521-.368 3.513-.925.934-.525 8.324-8.042 17.093-17.387 8.495-9.053 16.195-17.112 17.11-17.908.915-.796 2.753-1.905 4.085-2.463 2.076-.871 2.999-.999 6.475-.897 3.328.098 4.473.319 6.4 1.234" fill-rule="evenodd" fill="#ffffff"/></svg>
