<svg xmlns="http://www.w3.org/2000/svg" viewBox="0 0 256 256"><path d="M121.362 24.356c-9.47.684-19.879 3.564-28.539 7.896-5.344 2.673-6.423 3.523-7.537 5.935-2.023 4.384.486 9.619 5.222 10.895 2.291.616 3.554.286 9.113-2.386 5.516-2.651 9.803-4.148 15.501-5.414 6.014-1.336 19.742-1.336 25.756 0 8.644 1.92 15.682 4.938 23.026 9.872 9.416 6.326 16.119 14.031 21.406 24.604 4.854 9.711 6.189 16.08 6.697 31.975.766 23.949 3.552 42.308 9.009 59.379 2.354 7.361 3.419 9.633 5.129 10.937 4.439 3.386 10.924 1.279 12.51-4.063.662-2.23.337-4.242-1.402-8.672-1.181-3.009-3.291-10.662-4.54-16.466-2.685-12.478-3.954-23.717-4.52-40.037-.444-12.81-1.01-17.947-2.719-24.699-3.546-14.012-11.698-27.981-22.085-37.848C172.625 36.04 158.27 28.522 144 25.637c-3.903-.789-14.29-1.826-16.853-1.682-.587.033-3.19.214-5.785.401m-76.073 8.075c-4.291 1.828-6.36 6.69-4.588 10.783.327.755 4.52 5.68 9.317 10.943l8.722 9.571-2.499 4.936c-5.862 11.58-8.425 24.071-8.456 41.203-.023 13.088-2.552 31.915-6.189 46.08-1.893 7.374-3.588 12.092-6.747 18.773-2.578 5.453-2.622 5.608-2.611 9.173.015 5.039 1.18 7.893 4.631 11.344 1.831 1.831 3.353 2.901 5.158 3.627l2.56 1.029 22.143.214 22.143.213.721 2.56c1.901 6.75 5.124 12.205 10.223 17.303 7.786 7.787 17.133 11.651 28.183 11.651s20.397-3.864 28.183-11.651c5.099-5.099 8.322-10.553 10.223-17.303l.721-2.56 7.85-.099 7.85-.1 10.215 11.295c11.191 12.376 11.883 12.921 15.814 12.478 5.223-.588 8.527-6.283 6.445-11.108-.508-1.176-7.562-9.138-23.708-26.759-2.043-2.23-33.798-37.174-70.568-77.654-36.769-40.48-67.58-74.138-68.469-74.795-1.792-1.326-5.481-1.908-7.267-1.147m74.441 98.354c25.786 28.4 47.147 51.968 47.469 52.373.554.695-2.668.735-59.205.735H48.203l1.441-2.88c3.761-7.516 6.972-17.706 9.617-30.513 2.938-14.227 4.126-25.036 4.724-42.98.48-14.377 1.489-20.04 5.073-28.466l1.129-2.653 1.33 1.373c.731.755 22.427 24.61 48.213 53.011m30.883 69.582c0 1.163-3.304 6.035-5.757 8.489-4.866 4.865-10.069 7.037-16.856 7.037-6.787 0-11.99-2.172-16.856-7.037-2.453-2.454-5.757-7.326-5.757-8.489 0-.143 10.176-.26 22.613-.26s22.613.117 22.613.26" fill-rule="evenodd" fill="#ffffff"/></svg>
