<svg xmlns="http://www.w3.org/2000/svg" viewBox="0 0 256 256"><path d="M76.587 16.818c-1.59.71-3.427 2.636-4.027 4.223-.249.661-.453 3.383-.453 6.049v4.848l-13.974.138-13.973.137-2.605 1.204c-3.294 1.523-6.581 4.823-8.148 8.183l-1.194 2.56v167.68l1.194 2.56c1.567 3.36 4.854 6.66 8.148 8.183l2.605 1.204h167.68l2.605-1.204c3.294-1.523 6.581-4.823 8.148-8.183l1.194-2.56V44.16l-1.204-2.605c-1.523-3.294-4.823-6.581-8.183-8.148l-2.56-1.194-13.973-.137-13.974-.138v-4.889c0-5.397-.418-6.929-2.4-8.782-1.564-1.461-3.148-2.054-5.493-2.054s-3.929.593-5.493 2.054c-1.984 1.856-2.4 3.383-2.4 8.813V32H87.893v-4.92c0-3.229-.202-5.393-.587-6.294-.711-1.66-2.606-3.501-4.24-4.119-1.639-.619-4.926-.542-6.479.151m-4.48 36.167c0 5.721.77 7.824 3.54 9.656 2.467 1.633 6.239 1.633 8.706 0 2.77-1.832 3.54-3.935 3.54-9.656v-4.772h80.214v4.772c0 5.721.77 7.824 3.54 9.656 2.467 1.633 6.239 1.633 8.706 0 2.77-1.832 3.54-3.935 3.54-9.656v-4.772h23.894v32H48.213v-32h23.894v4.772m135.68 99.122v56.106H48.213V96h159.574v56.107M92.059 117.013c-10.164 5.136-10.882 5.702-11.863 9.345-.841 3.124 1.005 7.045 4.071 8.645 2.522 1.316 5.352 1.143 8.627-.528 1.46-.745 2.756-1.355 2.88-1.355.125 0 .226 11.796.226 26.212 0 17.446.151 26.614.453 27.414.614 1.629 2.873 3.947 4.547 4.665 2.958 1.269 7.006.243 9.166-2.324.615-.731 1.327-2.304 1.583-3.496.57-2.66.633-64.67.067-67.106-.904-3.897-3.884-6.272-7.869-6.272-2.197 0-3.154.387-11.888 4.8m54.677-4.351c-4.639 1.099-9.716 4.085-12.688 7.461-2.236 2.54-3.917 5.922-3.905 7.854.021 3.432 2.677 6.818 6.062 7.729 3.32.894 6.474-.42 8.905-3.711 1.788-2.421 3.112-3.321 5.557-3.78 5.76-1.08 10.984 5.247 8.749 10.597-.321.768-7.272 10.314-15.446 21.213-8.174 10.898-15.141 20.583-15.481 21.522-.984 2.715-.375 5.439 1.725 7.718 1.031 1.118 2.346 2.041 3.274 2.299.93.258 8.48.428 18.832.424 15.89-.006 17.417-.07 18.987-.794.938-.434 2.164-1.286 2.724-1.894 1.005-1.091 2.292-4.953 1.985-5.957a28.995 28.995 0 0 1-.413-1.682c-.312-1.425-2.504-3.991-4.125-4.829-.933-.483-3.169-.619-10.177-.619-4.939 0-8.981-.124-8.981-.275 0-.152 4.512-6.302 10.027-13.668 5.514-7.366 10.492-14.311 11.062-15.435 1.572-3.103 2.412-6.96 2.411-11.07-.002-6.549-2.225-11.778-7.026-16.525-3.338-3.3-6.756-5.314-10.776-6.351-2.786-.718-8.707-.838-11.282-.227" fill="#ffffff"/></svg>
