<svg xmlns="http://www.w3.org/2000/svg" viewBox="0 0 256 256"><path d="M156.587 40.782c-1.599.688-81.02 79.704-83.062 82.639-1.332 1.915-1.75 5.03-.992 7.409.427 1.342 8.071 9.208 40.903 42.089 22.207 22.241 41.083 40.93 41.946 41.53 1.751 1.217 4.217 1.695 6.52 1.263 2.969-.557 6.186-4.568 6.186-7.712 0-3.357-.376-3.766-39.143-42.56L91.531 128l37.414-37.44c38.767-38.794 39.143-39.203 39.143-42.56 0-2.766-2.584-6.438-5.236-7.44-1.684-.636-4.502-.536-6.265.222" fill-rule="evenodd" fill="#ffff"/></svg>
