<svg xmlns="http://www.w3.org/2000/svg" viewBox="0 0 256 256"><path d="M120.747 24.32c-36.774 2.49-69.769 24.672-85.996 57.813-4.911 10.029-8.131 20.412-9.858 31.787-1.031 6.787-1.031 21.373 0 28.16 4.764 31.37 21.891 57.697 48.353 74.329 11.472 7.21 26.044 12.476 40.674 14.698 6.787 1.031 21.373 1.031 28.16 0 22.397-3.401 41.936-12.867 57.655-27.929 17.075-16.362 27.729-37.111 31.372-61.098 1.031-6.787 1.031-21.373 0-28.16-4.729-31.139-21.768-57.479-47.891-74.037-8.792-5.573-22.599-11.233-32.603-13.367-9.311-1.986-20.649-2.82-29.866-2.196m21.333 16.834c19.109 3.239 36.245 12.257 49.361 25.976 12.55 13.128 20.413 28.932 23.472 47.179 1.06 6.324 1.06 21.058 0 27.382-6.527 38.929-36.939 68.547-75.522 73.549-40.225 5.216-78.605-17.63-93.515-55.665-1.924-4.908-3.769-11.797-4.789-17.884-1.06-6.324-1.06-21.058 0-27.382C44.276 95.29 52.463 79.297 65.88 65.88c14.813-14.813 31.75-22.813 54.013-25.512 3.334-.404 18.293.126 22.187.786m23.682 55.16c-1.957.495-5.433 3.776-29.008 27.383l-24.74 24.772-9.18-9.099c-5.05-5.004-9.788-9.515-10.531-10.024-1.923-1.318-4.83-1.627-7.11-.756-2.491.951-4.126 2.767-4.787 5.316-.662 2.553-.287 4.603 1.248 6.818.601.867 6.526 6.988 13.167 13.602 12.357 12.308 14.172 13.762 17.179 13.762 3.296 0 4.179-.792 33.186-29.763 15.436-15.418 28.557-28.739 29.158-29.604.601-.864 1.252-2.276 1.446-3.136.458-2.029-.408-5.419-1.759-6.885-1.956-2.125-5.387-3.114-8.269-2.386" fill="#ffffff"/></svg>
