<svg xmlns="http://www.w3.org/2000/svg" viewBox="0 0 256 256"><path d="M59.871 17.289c-.98.588-2.228 1.786-2.773 2.663-.989 1.59-.992 1.643-1.116 18.746l-.125 17.151-17.155.129-17.155.129-1.805 1.173c-4.863 3.161-4.754 10.535.201 13.616 1.602.996 1.623.997 18.777 1.122l17.173.125.003 60.249c.001 42.641.14 60.744.473 61.945.604 2.175 3.119 4.69 5.294 5.294 1.201.333 19.304.472 61.945.473l60.249.003.125 17.173c.125 17.154.126 17.175 1.122 18.777 3.116 5.012 10.676 5.012 13.792 0 .996-1.602.997-1.624 1.122-18.759l.125-17.155 17.155-.125c17.135-.125 17.157-.126 18.759-1.122 5.124-3.185 5.027-10.749-.175-13.727l-1.855-1.062-80.956-.111-80.956-.111-.111-81.169-.111-81.169-.997-1.604c-2.253-3.623-7.357-4.852-11.025-2.654m34.048 39.028c-4.179.999-6.751 5.538-5.587 9.859.626 2.326 3.071 4.827 5.331 5.455 1.188.33 14.983.472 45.964.473l44.266.003.003 44.266c.001 30.981.143 44.776.473 45.964.63 2.27 3.128 4.705 5.474 5.337 4.273 1.15 8.662-1.285 9.818-5.447.61-2.194.61-98.26 0-100.454-.532-1.916-2.166-3.943-3.978-4.935-1.238-.678-4.968-.736-50.83-.799-27.221-.037-50.141.088-50.934.278" fill="#ffffff"/></svg>
