<svg xmlns="http://www.w3.org/2000/svg" viewBox="0 0 256 256"><path d="M181.973 32.603c-5.879.994-10.709 3.065-15.573 6.678-1.525 1.132-7.455 6.753-13.177 12.489l-10.404 10.431-1.927-1.471c-4.23-3.229-8.313-4.536-14.172-4.536-4.619 0-7.831.775-11.733 2.831-2.886 1.52-14.687 12.853-16.569 15.911-3.886 6.314-2.856 14.556 2.471 19.771l1.948 1.907-27.041 27.107c-17.513 17.554-27.682 28.065-28.859 29.827-2.431 3.642-4.44 8.084-5.632 12.454-.843 3.09-.977 4.563-.949 10.425.018 3.871.233 7.306.496 7.934.408.974.005 2.149-3.364 9.813-2.105 4.788-4.221 9.858-4.703 11.266-2.986 8.728 3.69 17.837 13.537 18.469 3.782.242 4.86-.094 16.306-5.082l8.655-3.772 2.176.467c3.365.722 12.692.236 16.781-.875 4.11-1.115 8.597-3.171 12.242-5.607 1.718-1.149 12.493-11.575 29.798-28.836l27.107-27.036 2.073 2.104c3.987 4.048 10.274 5.692 15.704 4.107 3.355-.98 6.407-3.368 12.984-10.159 4.511-4.658 5.916-6.411 7.152-8.922 1.64-3.333 2.792-7.878 2.792-11.018 0-4.718-2.252-11.196-5.043-14.507l-1.259-1.493 10.969-11.093C217.95 88.845 219.84 86.282 222.53 78.08c1.08-3.291 1.192-4.219 1.218-10.027.034-7.599-.47-9.873-3.6-16.213-4.489-9.095-12.537-15.82-22.213-18.562-4.068-1.152-11.324-1.459-15.962-.675m14.764 17.405c3.332 1.647 6.589 4.492 8.369 7.312 3.499 5.543 3.772 13.204.693 19.48-1.447 2.951-2.692 4.331-15.981 17.724-7.926 7.989-14.614 15.057-14.861 15.708-.636 1.671-.559 4.31.177 6.07.345.826 2.263 3.202 4.262 5.28 3.909 4.064 4.497 5.084 4.497 7.804 0 2.795-1.359 4.904-6.392 9.917l-4.708 4.689-30.396-30.41L112 83.171l4.984-4.902c5.189-5.103 6.856-6.162 9.695-6.162 2.633 0 3.626.575 7.785 4.517 2.133 2.022 4.521 3.944 5.307 4.272 1.696.709 4.344.773 6.015.147.66-.248 7.729-6.947 15.707-14.887 17.83-17.743 18.225-17.998 27.551-17.811 4.251.085 4.694.181 7.693 1.663M121.92 168.02c-14.906 14.92-27.19 26.868-28.593 27.813-5.174 3.486-11.253 4.866-16.841 3.824-6.724-1.253-7.774-1.054-17.765 3.371-4.898 2.169-8.967 3.881-9.043 3.805-.076-.076 1.675-4.299 3.892-9.385 4.353-9.988 4.493-10.616 3.336-14.986-.876-3.308-.848-9.445.059-12.86 1.568-5.91 1.747-6.115 30.445-34.887l26.71-26.777 16.967 16.963 16.967 16.962-26.134 26.157" fill="#ffffff"/></svg>
