<svg xmlns="http://www.w3.org/2000/svg" viewBox="0 0 256 256"><path d="M101.329 24.302c-4.509.688-9.659 4.48-11.634 8.566-.515 1.064-1.13 2.963-1.369 4.218-.261 1.377-.433 11.91-.433 26.521v24.238l-25.706.131-25.707.131-2.876 1.362c-5.063 2.399-8.336 6.538-9.303 11.769-.288 1.559-.397 11.567-.31 28.346.122 23.543.204 26.113.885 27.856 1.636 4.185 5.5 8.048 9.684 9.684 1.742.68 4.305.762 27.608.885l25.688.135.135 25.688c.123 23.303.205 25.866.885 27.608 1.688 4.317 5.633 8.183 9.897 9.696 1.959.695 4.374.757 29.44.757 24.767 0 27.476-.068 29.125-.729 2.851-1.144 5.506-3.172 7.349-5.613 3.333-4.415 3.18-2.948 3.326-31.719l.131-25.688 25.688-.131c22.962-.117 25.881-.207 27.506-.855 2.842-1.131 5.503-3.162 7.349-5.607 3.336-4.418 3.18-2.918 3.326-31.967.085-16.762-.027-26.789-.314-28.346-.967-5.231-4.24-9.37-9.303-11.769l-2.876-1.362-25.707-.131-25.706-.131V63.607c0-14.611-.172-25.144-.433-26.521-.97-5.111-4.271-9.245-9.278-11.617l-2.876-1.362-26.027-.066c-14.314-.036-26.988.082-28.164.261m50.567 44.071c.001 19.308.151 28.805.473 29.964.604 2.175 3.119 4.69 5.294 5.294 1.159.322 10.656.472 29.964.473l28.266.003v47.758l-29.12.121c-26.557.11-29.237.185-30.456.852-1.812.992-3.446 3.019-3.978 4.935-.283 1.018-.442 11.726-.443 29.854l-.003 28.266h-47.786l-.003-28.266c-.001-18.128-.16-28.836-.443-29.854-.532-1.916-2.166-3.943-3.978-4.935-1.219-.667-3.899-.742-30.456-.852l-29.12-.121v-47.758l28.266-.003c19.308-.001 28.805-.151 29.964-.473 2.175-.604 4.69-3.119 5.294-5.294.322-1.159.472-10.656.473-29.964l.003-28.266h47.786l.003 28.266" fill-rule="evenodd" fill="#ffffff"/></svg>
