<svg xmlns="http://www.w3.org/2000/svg" viewBox="0 0 256 256"><path d="M121.813 32.282c-.938.076-3.53.345-5.76.599-20.684 2.351-40.742 12.182-55.924 27.409-12.888 12.926-21.324 28.152-25.725 46.432-2.212 9.186-2.944 22.232-1.781 31.731 3.97 32.423 22.126 59.114 50.577 74.352 20.367 10.909 45.027 13.96 67.747 8.383 29.276-7.187 54.087-28.489 65.625-56.343 4.628-11.174 7.124-23.031 7.184-34.136l.031-5.612-1.326-1.642c-.728-.903-1.976-2.026-2.773-2.495-1.419-.836-2.336-.856-45.821-.983-24.406-.071-45.372-.01-46.592.135-5.101.607-8.258 5.183-6.943 10.064.626 2.326 3.071 4.827 5.331 5.455 1.182.328 13.844.472 41.752.473l40.055.003-.294 2.666c-.805 7.288-3.517 16.225-7.284 24-16.572 34.21-54.618 51.968-91.519 42.716-28.279-7.09-50.654-29.493-57.847-57.918-3.723-14.715-2.991-31.721 1.972-45.811 10.026-28.463 34.642-48.663 64.464-52.902 5.621-.799 16.391-.809 21.918-.02 19.274 2.751 36.016 11.711 48.976 26.213 3.305 3.697 5.243 4.884 7.984 4.887 5.483.007 9.427-5.532 7.511-10.549-.755-1.975-5.437-7.373-10.284-11.857-15.417-14.26-35.455-23.149-56.534-25.08-4.582-.419-10.761-.491-14.72-.17" fill="#ffffff"/></svg>
