<svg xmlns="http://www.w3.org/2000/svg" viewBox="0 0 256 256"><path d="M202.631 4.272c-1.895.327-4.351 1.81-5.237 3.163-.368.56-.883 1.871-1.145 2.913-.695 2.758.048 5.051 2.475 7.646l1.97 2.107-30.013 30.015-30.013 30.016-3.241-1.506c-4.566-2.121-10.592-4.138-15.827-5.297-3.74-.829-5.713-.993-11.947-.998-7.861-.005-10.072.3-16 2.209-10.908 3.513-20.03 11.437-25.01 21.727-1.963 4.056-3.324 5.87-5.086 6.781-.657.34-3.843.912-7.08 1.271-10.156 1.126-16.734 3.187-23.837 7.471-12.34 7.442-19.961 18.558-23.545 34.343-1.213 5.343-1.094 18.818.224 25.387 3.599 17.941 12.672 34.385 26.724 48.437 11.525 11.525 23.426 19.008 37.984 23.883 9.103 3.048 13.92 3.828 23.68 3.835 9.206.006 11.729-.343 18.773-2.596 8.341-2.667 14.439-6.399 20.521-12.557 6.056-6.131 10.483-13.709 12.774-21.865.947-3.37 2.097-10.62 2.113-13.324.028-4.715 1.792-7.021 7.518-9.825 8.648-4.234 15.6-11.014 19.677-19.188 1.323-2.651 3.042-7.659 4.028-11.733.766-3.166.759-16.3-.011-20.267-1.253-6.455-3.868-14.333-6.417-19.329l-.837-1.64 30.042-30.039 30.042-30.04 1.822 1.754c2.881 2.774 5.051 3.461 8.326 2.636 4.811-1.211 7.304-6.936 4.985-11.449-.633-1.233-42.894-43.515-43.508-43.53-.225-.005-1.08-.159-1.902-.342-.821-.183-2.181-.214-3.022-.069m15.824 33.489 6.177 6.188-12.366 12.371-12.365 12.371-6.298-6.288-6.299-6.288 12.265-12.271c6.746-6.749 12.365-12.271 12.487-12.271.122 0 3.001 2.785 6.399 6.188m-40.663 53.031-10.798 10.799-6.292-6.291-6.291-6.292 10.79-10.796 10.791-10.797 6.299 6.289 6.3 6.29-10.799 10.798m-59.461-1.783c3.089.63 9.243 2.574 9.767 3.085.171.167-4.149 4.744-9.6 10.17l-9.911 9.866-3.33.659c-7.946 1.572-15.489 6.835-20.332 14.186-6.328 9.603-6.425 24.11-.227 33.744 8.286 12.878 23.398 18.268 37.836 13.496 4.283-1.416 8.153-3.891 11.921-7.626 4.934-4.891 7.775-10.138 8.955-16.543l.511-2.774 9.925-9.918 9.925-9.918.666 1.593c2.737 6.551 4.057 15.326 3.261 21.681-.931 7.436-3.325 12.561-8.125 17.396-2.23 2.248-3.859 3.357-8.32 5.67-7.02 3.64-10.11 6.48-12.754 11.724-1.544 3.06-2.26 6.208-2.789 12.26-1.128 12.905-6.035 21.646-15.885 28.299-2.591 1.75-8.368 4.063-12.584 5.04-4.876 1.129-14.254 1.031-20.094-.211-9.591-2.041-18.195-5.735-26.843-11.526-25.262-16.915-40.181-46.791-35.29-70.669 2.262-11.039 9.164-20.167 18.719-24.755 4.268-2.05 8.59-3.116 15.404-3.8 3.462-.347 7.007-.968 8.472-1.482 6.426-2.259 11.234-6.763 14.687-13.759 1.2-2.429 2.853-5.326 3.675-6.437 1.752-2.369 5.406-5.337 8.79-7.141 5.865-3.126 15.125-4.033 23.57-2.31m31.047 17.613c3.261 3.26 5.929 6.094 5.929 6.298 0 .203-3.424 3.789-7.609 7.969l-7.61 7.6-1.314-2.021c-1.727-2.654-6.058-7.015-8.938-8.998l-2.3-1.584 7.588-7.596c4.173-4.178 7.753-7.597 7.956-7.597.204 0 3.038 2.668 6.298 5.929m-30.777 22.904c3.179 1.449 6.489 4.788 7.961 8.029 1.012 2.229 1.182 3.16 1.182 6.445s-.17 4.216-1.182 6.445c-1.495 3.291-4.779 6.57-8.162 8.148-2.207 1.029-3.089 1.194-6.4 1.194-3.311 0-4.193-.165-6.4-1.194-3.383-1.578-6.667-4.857-8.162-8.148-1.01-2.226-1.183-3.164-1.186-6.445-.003-3.294.163-4.204 1.173-6.4 2.068-4.497 6.567-8.219 11.1-9.182 2.846-.605 7.423-.102 10.076 1.108M52.693 160.78c-2.367 1.129-3.648 2.663-4.289 5.133-.66 2.546-.284 4.599 1.249 6.808 1.451 2.09 33.037 33.526 34.39 34.226 2.919 1.51 7.069 1.099 9.257-.916 2.461-2.265 3.322-6.17 2.038-9.243-.722-1.727-30.796-32.242-34.423-34.927-2.579-1.91-5.64-2.312-8.222-1.081" fill-rule="evenodd" fill="#ffffff"/></svg>
