<svg xmlns="http://www.w3.org/2000/svg" viewBox="0 0 256 256"><path d="M68.907 40.732c-11.128 1.719-21.119 6.13-29.935 13.215-10.023 8.055-16.952 18.64-20.564 31.416-1.549 5.477-1.765 6.702-2.175 12.344-2.789 38.389 28.104 81.057 87.4 120.715 9.184 6.142 20.124 12.608 22.422 13.251 2.864.802 4.734.114 12.808-4.714 23.2-13.871 43.177-29.23 60.427-46.456 8.994-8.981 12.361-12.721 17.692-19.65 16.184-21.037 24.225-43.322 22.785-63.146-.394-5.424-.627-6.81-1.961-11.657-2.669-9.699-6.806-17.483-13.165-24.775-12.435-14.258-30.327-21.842-49.665-21.053-10.009.409-17.054 2.191-25.856 6.542-7.593 3.753-13.76 8.49-19.099 14.669L128 63.772l-2.021-2.339c-5.339-6.179-11.506-10.916-19.099-14.669-6.172-3.051-9.089-4.073-15.36-5.383-5.592-1.168-17.113-1.498-22.613-.649M87.813 57.01c8.649 1.53 17.057 5.897 23.446 12.177 3.491 3.432 5.815 6.711 8.569 12.093 2.405 4.698 3.874 6.092 6.839 6.49 4.427.593 6.855-1.123 9.734-6.882 2.453-4.906 4.853-8.273 8.34-11.701 9.755-9.589 23.149-14.152 37.606-12.812 25.845 2.397 44.157 25.206 41.235 51.359-1.015 9.084-3.479 16.795-8.387 26.239-6.186 11.907-13.862 21.858-27.011 35.021-9.746 9.757-17.552 16.506-29.037 25.107-9.811 7.346-29.803 20.512-31.147 20.512-1.344 0-21.336-13.166-31.147-20.512-11.493-8.607-19.295-15.354-29.032-25.107-9.903-9.919-15.327-16.334-21.015-24.853-8.518-12.756-13.263-24.927-14.451-37.067-.89-9.098.495-17.072 4.342-25.001 9.329-19.228 29.155-28.949 51.116-25.063" fill-rule="evenodd" fill="#ffffff"/></svg>
