<svg xmlns="http://www.w3.org/2000/svg" viewBox="0 0 256 256"><path d="M160.213 24.29c-11.256 1.37-21.142 10.475-23.658 21.79-.713 3.202-.533 9.346.377 12.904 2.504 9.79 10.28 17.599 20.089 20.174 4.339 1.139 10.881.971 15.148-.389 8.594-2.739 15.742-9.726 18.384-17.969 6.344-19.792-9.643-39.03-30.34-36.51m8.534 16.829c2.498 1.177 3.928 2.44 5.568 4.917 1.703 2.573 1.988 7.433.622 10.607-2.012 4.677-6.982 7.694-11.934 7.245-9.47-.859-14.124-11.751-8.289-19.401 3.094-4.057 9.37-5.563 14.033-3.368M83.84 64.569c-3.878 1.29-6.918 3.385-8.722 6.011-1.11 1.617-9.307 15.474-44.185 74.7a118646.21 118646.21 0 0 1-22.098 37.51C-.473 198.582-.758 199.278.612 202.865c.967 2.533 3.053 4.295 5.775 4.879 3.092.663 240.999.662 243.426-.002 5.163-1.41 7.568-6.708 5.182-11.413-.553-1.09-13.239-22.622-28.191-47.849-17.627-29.74-27.812-46.512-28.968-47.703-.981-1.01-3.027-2.45-4.547-3.2-2.496-1.231-3.138-1.363-6.613-1.357-3.285.006-4.215.177-6.339 1.167-3.51 1.634-5.457 3.308-7.437 6.392-.945 1.471-7.044 11.698-13.555 22.728-6.51 11.029-12.069 20.305-12.353 20.613-.413.449-5.031-7.107-23.08-37.76-14.304-24.294-23.252-39.063-24.446-40.35-2.746-2.961-6.359-4.613-10.57-4.833-2.106-.111-3.983.035-5.056.392m15.474 34.654c6.09 10.338 11.299 19.218 11.575 19.734l.501.936H64.503L71.98 107.2C85.609 84.062 87.959 80.137 88.1 80.283c.077.079 5.123 8.602 11.214 18.94m109.848 50.964a40887.773 40887.773 0 0 1 23.55 39.786l1.182 2.027-30.653-.001-30.654-.001-7.976-13.545c-4.387-7.451-8.099-13.872-8.25-14.27-.188-.494 4.366-8.57 14.316-25.387 16.295-27.543 15.793-26.711 15.981-26.513.075.079 10.202 17.136 22.504 37.904m-79.017 1.386c5 8.507 10.569 17.963 12.376 21.014 1.806 3.05 5.099 8.618 7.317 12.373l4.033 6.827-65.699.108c-36.134.059-65.763.043-65.843-.037-.12-.12 30.141-51.759 32.108-54.791l.623-.96h65.992l9.093 15.466" fill-rule="evenodd" fill="#ffff"/></svg>
