<svg xmlns="http://www.w3.org/2000/svg" viewBox="0 0 256 256"><path d="M77.424 24.312c-4.975.74-9.796 4.456-12.067 9.302l-1.144 2.439v183.894l1.137 2.422c3.776 8.052 12.766 11.664 20.708 8.321 1.216-.512 34.715-20.802 74.442-45.09 79.17-48.401 76.422-46.584 78.41-51.84 1.325-3.503 1.324-8.019-.001-11.52-1.962-5.181.57-3.507-77.629-51.305-39.307-24.026-72.535-44.231-73.84-44.901-2.143-1.101-3.547-1.494-6.8-1.907-.587-.074-2.034.009-3.216.185m107.204 79.701c21.407 13.076 38.924 23.87 38.928 23.987.004.117-29.984 18.549-66.64 40.96l-71.674 43.823-5.029 3.076V40.178l32.747 20.031c18.011 11.017 50.261 30.729 71.668 43.804" fill="#ffffff"/></svg>
