<svg xmlns="http://www.w3.org/2000/svg" viewBox="0 0 256 256"><path d="M124.8 32.806c-2.065.954-3.365 2.304-4.246 4.413-.581 1.389-.661 6.494-.661 42.117v40.537l-41.066.117c-40.19.114-41.098.135-42.515.97-.797.469-2.045 1.591-2.773 2.493-1.193 1.475-1.326 1.931-1.326 4.547 0 2.601.138 3.08 1.305 4.547.718.902 2.15 2.072 3.184 2.6l1.879.96h81.312v81.312l.96 1.879c.528 1.034 1.698 2.466 2.6 3.184 1.467 1.167 1.946 1.305 4.547 1.305s3.08-.138 4.547-1.305c.902-.718 2.072-2.15 2.6-3.184l.96-1.879v-81.312h81.312l1.879-.96c1.034-.528 2.466-1.698 3.184-2.6 1.167-1.467 1.305-1.946 1.305-4.547 0-2.616-.133-3.072-1.326-4.547-.728-.902-1.976-2.024-2.773-2.493-1.417-.835-2.325-.856-42.515-.97l-41.066-.117-.01-40.63c-.009-38.589-.049-40.715-.797-42.336-1.93-4.182-6.477-5.958-10.5-4.101" fill="#ffffff"/></svg>
