<svg xmlns="http://www.w3.org/2000/svg" viewBox="0 0 256 256"><path d="M124.8 8.714c-1.812.812-3.171 2.225-4.093 4.255-.732 1.612-.796 3.08-.804 18.498l-.01 16.746H85.615c-32.906 0-34.414.035-37.653.856-10.774 2.732-19.465 11.169-22.861 22.191l-.983 3.193-.126 59.734c-.084 40.29.021 60.682.324 62.647.599 3.886 2.173 8.277 4.111 11.468 3.348 5.512 10.273 11.485 15.643 13.494C50.199 224.09 46.787 224 128 224c81.213 0 77.801.09 83.93-2.204 5.344-1.999 12.294-7.981 15.604-13.43.85-1.4 2.179-4.359 2.953-6.576l1.406-4.03V74.88l-.982-3.394c-3.208-11.078-11.946-19.615-22.96-22.432-3.137-.802-4.853-.841-37.566-.841h-34.278l-.01-16.746c-.01-18.496-.039-18.712-2.817-21.307-2.209-2.063-5.754-2.668-8.48-1.446m81.371 56.642c3.305 1.549 5.21 3.127 6.991 5.791 2.921 4.371 2.755.215 2.631 65.68l-.113 59.245-1.4 2.843c-2.397 4.868-6.634 7.982-12.04 8.848-3.813.61-144.628.615-148.48.004-5.46-.865-9.938-4.242-12.297-9.274l-1.143-2.44V75.733l1.203-2.448c2.137-4.354 6.661-7.956 11.108-8.845.973-.194 35.369-.325 76.436-.29l74.666.063 2.438 1.143M80.175 96.637c-2.424.779-5.674 3.58-6.87 5.922-1.283 2.512-1.536 6.941-.544 9.537 1.039 2.722 3.991 5.782 6.704 6.948 1.803.776 2.757.914 5.211.754 3.691-.241 5.918-1.311 8.253-3.964 5.177-5.88 3.603-14.527-3.331-18.301-2.716-1.478-6.494-1.837-9.423-.896m88.231-.022c-8.419 3.004-11.102 12.668-5.335 19.219 2.335 2.653 4.562 3.723 8.253 3.964 3.847.251 6.625-.855 9.282-3.696 2.558-2.734 3.458-5.241 3.195-8.901-.257-3.578-1.367-5.842-4.005-8.164-3.145-2.768-7.702-3.737-11.39-2.422m-82.859 40.129c-10.401 2.313-19.137 11.495-21.085 22.161-2.685 14.709 7.075 29.435 21.511 32.455 4.441.929 79.613.929 84.054 0 7.796-1.631 15.376-7.529 18.923-14.725 3.677-7.46 4.034-15.434 1.029-23.035-3.358-8.496-11.631-15.417-20.351-17.026-3.977-.734-80.715-.579-84.081.17m14.293 27.371v12.222l-5.27-.227c-5.846-.253-7.904-.886-10.616-3.267-4.778-4.196-5.078-12.385-.623-17.04 2.749-2.874 5.671-3.788 12.349-3.863l4.16-.047v12.222m40.107-.062v12.16h-23.894v-24.32h23.894v12.16m28.8-10.926c1.173.519 2.781 1.558 3.572 2.308 4.776 4.53 4.642 13.093-.273 17.408-2.712 2.381-4.77 3.014-10.616 3.267l-5.27.227V151.778l5.227.203c4.159.161 5.662.395 7.36 1.146" fill-rule="evenodd" fill="#ffffff"/></svg>
