<svg xmlns="http://www.w3.org/2000/svg" viewBox="0 0 256 256"><path d="M154.667 24.144c-.704.1-2.816.386-4.694.635-15.792 2.097-30.891 9.828-41.889 21.446-12.027 12.706-18.223 26.628-19.83 44.553-.849 9.474.301 18.528 3.535 27.835.937 2.699 1.74 5.304 1.784 5.789.062.678-6.884 6.882-30 26.798-20.125 17.34-30.896 26.91-32.546 28.917-4.879 5.933-6.87 11.641-6.9 19.776-.021 5.407.435 7.95 2.206 12.307 3.033 7.465 10.01 14.452 17.431 17.456 4.406 1.784 6.931 2.238 12.343 2.217 8.134-.03 13.839-2.02 19.778-6.9 2.014-1.654 11.542-12.377 28.922-32.546 19.838-23.023 26.125-30.062 26.796-30 .482.044 3.085.847 5.784 1.784 9.284 3.226 18.445 4.407 27.69 3.569 19.449-1.762 35.299-9.432 48.013-23.231 15.136-16.429 22.004-40.243 17.747-61.538-.962-4.812-3.138-12.089-4.281-14.317-2.075-4.046-6.54-5.703-10.449-3.879-1.005.469-10.092 8.55-22.092 19.647l-20.384 18.851-8.604-1.844-8.605-1.845-1.857-8.639-1.858-8.638 18.841-20.374c11.09-11.992 19.168-21.075 19.637-22.08 1.396-2.992.779-6.333-1.634-8.853-1.875-1.957-9.864-4.64-18.182-6.105-3.415-.602-14.383-1.121-16.702-.791m12.068 16.241c1.24.149 2.2.426 2.133.616-.067.19-7.129 7.951-15.695 17.246-8.565 9.296-15.901 17.513-16.302 18.26-.401.748-.737 2.176-.746 3.174-.017 1.636 4.886 25.375 6.029 29.196.576 1.925 3.035 4.354 5.046 4.985 3.31 1.039 27.517 6.03 29.165 6.013.973-.009 2.376-.345 3.119-.746.743-.401 8.958-7.737 18.256-16.302 9.298-8.566 17.073-15.632 17.278-15.703.617-.215 1.012 6.183.731 11.859-.703 14.197-6.088 26.278-16.275 36.51-10.792 10.839-24.246 16.394-39.719 16.399-8.824.002-15.584-1.566-24.198-5.615-4.259-2.002-4.793-2.15-7.152-1.979-1.654.119-2.96.486-3.717 1.045-.643.473-13.411 15.053-28.374 32.399-14.964 17.346-28.099 32.451-29.189 33.567-1.09 1.115-3.055 2.555-4.367 3.2-2.118 1.04-2.862 1.171-6.651 1.171-3.729 0-4.572-.143-6.688-1.135-3.393-1.59-6.069-4.211-7.712-7.553-1.285-2.611-1.387-3.134-1.387-7.092 0-3.842.121-4.51 1.198-6.62.659-1.291 1.642-2.857 2.185-3.48.544-.624 15.076-13.272 32.296-28.108 17.219-14.836 32.043-27.67 32.943-28.52 3.776-3.569 3.919-5.991.754-12.801-2.696-5.802-4.131-10.379-4.965-15.838-1.153-7.543-.579-16.563 1.544-24.304 1.139-4.151 5.24-12.626 7.956-16.442 8.931-12.55 22.104-20.663 37.662-23.198 2.82-.46 11.699-.582 14.842-.204" fill="#ffffff"/></svg>
